<svg id="_2-liga" data-name="2-liga" xmlns="http://www.w3.org/2000/svg" width="33.95" height="48.002" viewBox="0 0 33.95 48.002">
  <g id="Gruppe_7236" data-name="Gruppe 7236">
    <path id="Pfad_7065" data-name="Pfad 7065" d="M121.325,33.182l-.063-.877V20.2H87.726V32.3l-.063.877c-1.149,15.081,4.6,27.312,16.157,34.612l.679.407.679-.407C116.73,60.494,122.474,48.253,121.325,33.182Z" transform="translate(-87.519 -20.2)" fill="#ececec"/>
  </g>
  <g id="Gruppe_7237" data-name="Gruppe 7237" transform="translate(1.157 0.95)">
    <path id="Pfad_7066" data-name="Pfad 7066" d="M132.757,32.5V42.7a55.035,55.035,0,0,0-15.478-2.026A55.044,55.044,0,0,0,101.8,42.7V32.5h30.957" transform="translate(-101.466 -32.166)" fill="#fc0"/>
    <path id="Pfad_7067" data-name="Pfad 7067" d="M98.6,40.287V29.3h31.636v11l-.439-.125a54.322,54.322,0,0,0-15.384-2.026,54.816,54.816,0,0,0-15.384,2.016Zm15.813-2.809a56.323,56.323,0,0,1,15.144,1.911V29.968H99.268v9.421A56.229,56.229,0,0,1,114.413,37.478Z" transform="translate(-98.6 -29.3)" fill="#fc0"/>
  </g>
  <g id="Gruppe_7238" data-name="Gruppe 7238" transform="translate(0.74 0.543)">
    <path id="Pfad_7068" data-name="Pfad 7068" d="M127.123,25.4H94.6V37.369h0l.47-.136a52.43,52.43,0,0,1,15.75-2.162,51.944,51.944,0,0,1,15.75,2.162l.47.136ZM110.83,34.319a55.044,55.044,0,0,0-15.478,2.026v-10.2h31.03v10.2A56.147,56.147,0,0,0,110.83,34.319Z" transform="translate(-94.6 -25.4)" fill="#002454"/>
  </g>
  <g id="Gruppe_7239" data-name="Gruppe 7239" transform="translate(0.531 10.204)">
    <path id="Pfad_7069" data-name="Pfad 7069" d="M109.044,155.092l-.407-.272c-11.353-7.165-17.035-19.27-15.886-34.08l.063-.543.47-.136a52.43,52.43,0,0,1,15.75-2.162,51.944,51.944,0,0,1,15.75,2.162l.47.136.063.543c1.086,14.873-4.533,26.977-15.886,34.08Z" transform="translate(-92.606 -117.9)" fill="#e30613"/>
  </g>
  <g id="Gruppe_7240" data-name="Gruppe 7240" transform="translate(1.281 10.946)">
    <path id="Pfad_7070" data-name="Pfad 7070" d="M131.021,127.1A51.739,51.739,0,0,0,115.47,125a53.848,53.848,0,0,0-15.551,2.1c-1.086,14.538,4.261,25.484,15.551,32.586C126.76,152.594,132.1,141.638,131.021,127.1Z" transform="translate(-99.78 -125)" fill="#fff"/>
  </g>
  <g id="Gruppe_7241" data-name="Gruppe 7241" transform="translate(8.364 22.246)">
    <path id="Pfad_7071" data-name="Pfad 7071" d="M170.462,237.117c1.89-.063,4.324,1.619,5.953,4.125a10.734,10.734,0,0,0,3.718-.877c-1.42-3.917-9.4-7.509-11.833-2.235h0A3.276,3.276,0,0,1,170.462,237.117Zm4.46-3.175c3.447.2,6.831,2.768,7.436,4.8a2.318,2.318,0,0,0-.2-3.175,8.592,8.592,0,0,0-5.953-2.371,8.161,8.161,0,0,0-4.052,1.013A6.912,6.912,0,0,1,174.922,233.942Zm1.556,8.251a9.925,9.925,0,0,0-1.086,3.718c4.125.742,11.154-4.324,7.844-9.128h0a2.981,2.981,0,0,1-.136,2.371C182.16,240.772,179.455,241.984,176.478,242.192Zm7.165,2.3c-1.89,2.841-5.817,4.533-7.844,4.052a2.3,2.3,0,0,0,2.841,1.42,8.54,8.54,0,0,0,6.152-7.969A8.5,8.5,0,0,1,183.643,244.49Zm-8.585,4.522c-1.013-1.619-.742-4.6.606-7.238a10.311,10.311,0,0,0-2.632-2.768c-2.705,3.175-1.828,11.833,3.99,11.363h0A3.248,3.248,0,0,1,175.058,249.013Zm-4.533-11.081a2.4,2.4,0,0,0-2.705,1.755,8.618,8.618,0,0,0,.95,6.287,8.916,8.916,0,0,0,2.9,3.039,9.865,9.865,0,0,1-1.556-2.3C168.572,243.676,169.1,239.487,170.525,237.931Z" transform="translate(-167.601 -233.2)" fill="#e30613"/>
  </g>
  <g id="Gruppe_7248" data-name="Gruppe 7248" transform="translate(3.236 12.982)">
    <g id="Gruppe_7242" data-name="Gruppe 7242" transform="translate(13.598)">
      <path id="Pfad_7072" data-name="Pfad 7072" d="M248.7,149.774h1.013V144.5H248.7Z" transform="translate(-248.7 -144.5)" fill="#e30613"/>
    </g>
    <g id="Gruppe_7243" data-name="Gruppe 7243" transform="translate(21.567 0.815)">
      <path id="Pfad_7073" data-name="Pfad 7073" d="M327.371,152.3c-.815,1.619-1.556,3.311-2.371,4.94.334.063.742.063,1.086.136.606-1.285,1.222-2.632,1.828-3.917.334.815.679,1.619.95,2.434a8.8,8.8,0,0,1-1.347-.272c-.136.272-.272.606-.407.877.742.136,1.42.272,2.162.407a8.757,8.757,0,0,0,.47,1.086c.334.063.742.136,1.086.2-.815-1.964-1.556-3.854-2.371-5.744A10.017,10.017,0,0,1,327.371,152.3Z" transform="translate(-325 -152.3)" fill="#e30613"/>
    </g>
    <g id="Gruppe_7244" data-name="Gruppe 7244" transform="translate(15.969 0.042)">
      <path id="Pfad_7074" data-name="Pfad 7074" d="M276.465,147.491c-.679-.063-1.42-.136-2.1-.2-.136.272-.272.543-.407.877.543.063,1.086.063,1.556.136v.742a1.592,1.592,0,0,1-1.347.47,1.987,1.987,0,0,1-1.828-1.964,1.637,1.637,0,0,1,1.828-1.692,1.335,1.335,0,0,1,.742.2l.407-.815a2.3,2.3,0,0,0-1.149-.334,2.552,2.552,0,0,0-2.768,2.632,2.949,2.949,0,0,0,2.768,2.9,2.607,2.607,0,0,0,2.3-.95h0Z" transform="translate(-271.4 -144.901)" fill="#e30613"/>
    </g>
    <g id="Gruppe_7245" data-name="Gruppe 7245" transform="translate(8.669 0.136)">
      <path id="Pfad_7075" data-name="Pfad 7075" d="M202.513,145.8c-.334,0-.679.063-1.013.063v5.274c1.222-.063,2.507-.136,3.718-.2v-.95c-.95,0-1.828.063-2.705.136Z" transform="translate(-201.5 -145.8)" fill="#e30613"/>
    </g>
    <g id="Gruppe_7246" data-name="Gruppe 7246" transform="translate(0 0.953)">
      <path id="Pfad_7076" data-name="Pfad 7076" d="M118.573,155.712a2.245,2.245,0,0,1,2.162-2.026c1.013-.2,2.026.063,2.026,1.285,0,1.347-1.013,1.828-2.1,2.026-.47.063-1.149.334-1.149.95v.47c1.086-.2,2.162-.407,3.248-.606v.95q-2.131.3-4.261.815v-1.42c0-1.222,1.086-1.828,2.1-2.026.407-.063,1.149-.334,1.149-.95,0-.543-.47-.679-1.086-.606-.606.136-1.149.47-1.222.95C119.252,155.576,118.918,155.65,118.573,155.712Z" transform="translate(-118.5 -153.626)" fill="#e30613"/>
    </g>
    <g id="Gruppe_7247" data-name="Gruppe 7247" transform="translate(5.139 4.781)">
      <path id="Pfad_7077" data-name="Pfad 7077" d="M168.786,190.774c0,.742-1.086.877-1.086.136S168.786,190.032,168.786,190.774Z" transform="translate(-167.7 -190.281)" fill="#e30613"/>
    </g>
  </g>
  <g id="Gruppe_7257" data-name="Gruppe 7257" transform="translate(3.309 3.384)">
    <g id="Gruppe_7256" data-name="Gruppe 7256">
      <g id="Gruppe_7249" data-name="Gruppe 7249" transform="translate(5.212 0.47)">
        <path id="Pfad_7078" data-name="Pfad 7078" d="M169.1,57.1h2.1a1.913,1.913,0,0,1,.679.136,1.174,1.174,0,0,1,.47.334,1.162,1.162,0,0,1,.272.47,2,2,0,0,1,.063.606,1.44,1.44,0,0,1-.063.543.781.781,0,0,1-.334.47,1.866,1.866,0,0,1-.47.334,2.114,2.114,0,0,1-.679.136H169.11V57.1Zm1.89,2.371a1.037,1.037,0,0,0,.679-.272,1.024,1.024,0,0,0,0-1.212.9.9,0,0,0-.679-.272h-1.013v1.755Z" transform="translate(-169.1 -57.1)" fill="#002454"/>
      </g>
      <g id="Gruppe_7250" data-name="Gruppe 7250" transform="translate(16.168 0.47)">
        <path id="Pfad_7079" data-name="Pfad 7079" d="M274.877,60.139H274V57.1h2.089a1.815,1.815,0,0,1,.95.2.828.828,0,0,1,.272.742.815.815,0,0,1-.2.606c-.136.136-.272.2-.334.272l.606,1.222h-.877l-.543-1.086h-1.086Zm1.076-1.755a.47.47,0,0,0,.334-.136.345.345,0,0,0,0-.4c-.063-.063-.2-.063-.334-.063h-1.086v.658h1.086Z" transform="translate(-274 -57.1)" fill="#002454"/>
      </g>
      <g id="Gruppe_7251" data-name="Gruppe 7251">
        <path id="Pfad_7080" data-name="Pfad 7080" d="M122.312,52.6h-1.149L119.2,56.59h1.013l.47-1.013h2.162l.47,1.013h1.013ZM121.1,54.762l.679-1.347.679,1.347Z" transform="translate(-119.2 -52.6)" fill="#002454"/>
      </g>
      <g id="Gruppe_7252" data-name="Gruppe 7252" transform="translate(19.687 0.47)">
        <path id="Pfad_7081" data-name="Pfad 7081" d="M310.2,57.1h-1.013L307.7,60.139h.877l.272-.606h1.619l.272.606h.877Zm-.95,1.692.47-.95.47.95Z" transform="translate(-307.7 -57.1)" fill="#002454"/>
      </g>
      <g id="Gruppe_7253" data-name="Gruppe 7253" transform="translate(14.34 0.47)">
        <rect id="Rechteck_1028" data-name="Rechteck 1028" width="0.877" height="3.039" fill="#002454"/>
      </g>
      <g id="Gruppe_7254" data-name="Gruppe 7254" transform="translate(9.337 0.47)">
        <path id="Pfad_7082" data-name="Pfad 7082" d="M211.5,57.1l-.815,1.483-.8-1.483H208.6v3.039h.877V57.977l1.212,2.162,1.222-2.162v2.162h.877V57.1Z" transform="translate(-208.6 -57.1)" fill="#002454"/>
      </g>
      <g id="Gruppe_7255" data-name="Gruppe 7255" transform="translate(24.001)">
        <path id="Pfad_7083" data-name="Pfad 7083" d="M350.024,55.775V52.6H349v3.99h3.384v-.815Z" transform="translate(-349 -52.6)" fill="#002454"/>
      </g>
    </g>
  </g>
</svg>
