<svg id="bundesliga" xmlns="http://www.w3.org/2000/svg" xmlns:xlink="http://www.w3.org/1999/xlink" width="28.321" height="48.002" viewBox="0 0 28.321 48.002">
  <defs>
    <radialGradient id="radial-gradient" cx="0.466" cy="0.255" r="0.878" gradientUnits="objectBoundingBox">
      <stop offset="0.6" stop-color="#fff" stop-opacity="0"/>
      <stop offset="0.673" stop-color="#ebebeb" stop-opacity="0.29"/>
      <stop offset="0.85" stop-color="#bdbcbc"/>
      <stop offset="0.885" stop-color="#c1c0c0"/>
      <stop offset="0.923" stop-color="#cecdcd"/>
      <stop offset="0.962" stop-color="#e3e2e2"/>
      <stop offset="1" stop-color="#fff"/>
    </radialGradient>
    <radialGradient id="radial-gradient-2" cx="0.378" cy="0.358" r="0.688" xlink:href="#radial-gradient"/>
    <radialGradient id="radial-gradient-3" cx="0.374" cy="0.305" r="0.731" gradientUnits="objectBoundingBox">
      <stop offset="0" stop-color="#f3997b"/>
      <stop offset="0.045" stop-color="#f29276"/>
      <stop offset="0.11" stop-color="#f07f69"/>
      <stop offset="0.186" stop-color="#ed6052"/>
      <stop offset="0.272" stop-color="#e83434"/>
      <stop offset="0.35" stop-color="#e30613"/>
      <stop offset="0.886" stop-color="#770f00"/>
      <stop offset="0.909" stop-color="#810f01"/>
      <stop offset="0.947" stop-color="#8a1003"/>
      <stop offset="1" stop-color="#8d1003"/>
    </radialGradient>
  </defs>
  <path id="Pfad_7033" data-name="Pfad 7033" d="M114.3,20V53.841a14.16,14.16,0,1,0,28.321,0V20Z" transform="translate(-114.3 -20)" fill="#fff"/>
  <path id="Pfad_7034" data-name="Pfad 7034" d="M119.3,25V58.257a13.639,13.639,0,1,0,27.277,0V25Zm26.568,11.04V58.257a12.929,12.929,0,1,1-25.858,0V36.04h25.858" transform="translate(-118.778 -24.478)"/>
  <path id="Pfad_7035" data-name="Pfad 7035" d="M151.958,130.8v22.216a12.929,12.929,0,0,1-25.858,0V130.8h25.858" transform="translate(-124.869 -119.238)" fill="url(#radial-gradient)"/>
  <circle id="Ellipse_1" data-name="Ellipse 1" cx="10.78" cy="10.78" r="10.78" transform="translate(3.381 23.062)" fill="url(#radial-gradient-2)"/>
  <path id="Pfad_7036" data-name="Pfad 7036" d="M149.7,245.461c2.4-.063,5.458,2.077,7.472,5.2a10.817,10.817,0,0,0,4.675-1.169c-1.691-4.873-11.687-9.35-14.745-2.724h0A3.447,3.447,0,0,1,149.7,245.461Zm5.583-4.028c4.289.261,8.5,3.444,9.287,5.979a3.006,3.006,0,0,0-.2-4.028A10.924,10.924,0,0,0,156.9,240.4a10.681,10.681,0,0,0-5.134,1.294A15.876,15.876,0,0,1,155.285,241.433Zm1.951,10.393a12.5,12.5,0,0,0-1.367,4.675c5.134.97,14.035-5.458,9.872-11.437h0a3.336,3.336,0,0,1-.2,2.922C164.384,250.011,161,251.628,157.236,251.826Zm8.964,2.922c-2.4,3.569-7.273,5.656-9.872,5.071a2.964,2.964,0,0,0,3.569,1.816,11.03,11.03,0,0,0,6.3-4.936,11.292,11.292,0,0,0,1.43-5.071A8.618,8.618,0,0,1,166.2,254.748ZM155.483,260.4c-1.231-2.014-.908-5.718.783-9.089a12.279,12.279,0,0,0-3.308-3.506c-3.381,3.965-2.275,14.87,5,14.223h0A3.452,3.452,0,0,1,155.483,260.4Zm-5.718-13.9a3.013,3.013,0,0,0-3.381,2.212,10.912,10.912,0,0,0,4.873,11.75,12.751,12.751,0,0,1-2.014-2.859C147.364,253.715,147.949,248.445,149.764,246.5Z" transform="translate(-142.752 -217.401)" fill="url(#radial-gradient-3)"/>
  <g id="Gruppe_7229" data-name="Gruppe 7229" transform="translate(1.231 1.231)">
    <rect id="Rechteck_1023" data-name="Rechteck 1023" width="25.785" height="9.548" transform="translate(0 0)" fill="#fc0"/>
  </g>
  <path id="Pfad_7037" data-name="Pfad 7037" d="M147.412,143.815l1.951,2.4h.584v-3.642h-.71v2.473l-1.951-2.473h-.595v3.642h.71v-2.4Zm-6.178.449a.872.872,0,0,0,.261-.71,1.033,1.033,0,0,0-1.044-1.044H138.5v3.642h2.014a1.1,1.1,0,0,0,1.106-1.106A2.1,2.1,0,0,0,141.234,144.264Zm-2.077-1.033h1.231a.386.386,0,1,1,0,.772H139.22v-.783h-.063Zm1.3,2.337H139.23v-.908h1.231a.45.45,0,0,1,.459.459A.461.461,0,0,1,140.462,145.568ZM160.33,144c-.459-.063-.783-.125-.783-.459,0-.2.261-.459.783-.459a1.085,1.085,0,0,1,.845.386l.522-.261a1.4,1.4,0,0,0-1.43-.71c-.647,0-1.43.323-1.43,1.043,0,.783.71,1.044,1.43,1.106.459.063.845.2.845.522,0,.386-.386.522-.845.522a1.113,1.113,0,0,1-1.044-.584l-.584.323a1.523,1.523,0,0,0,1.555.908c.783,0,1.492-.323,1.492-1.169C161.76,144.264,161.05,144.076,160.33,144Zm-6.042.4a1.817,1.817,0,0,0-1.816-1.816h-1.43v3.642h1.43A1.826,1.826,0,0,0,154.288,144.4Zm-1.816,1.169h-.71V143.23h.71a1.053,1.053,0,0,1,1.106,1.106A1.031,1.031,0,0,1,152.473,145.568Zm-6.814-.845v-2.077h-.647v2.077a.908.908,0,0,1-1.816,0v-2.077h-.647v2.077a1.532,1.532,0,0,0,1.555,1.555A1.579,1.579,0,0,0,145.658,144.723Zm10.258,0h1.628v-.647h-1.628v-.845h2.014v-.647h-2.661v3.642h2.661v-.647h-2.014Zm-8.839,6.23h.647v-3.642h-.647Zm7.085-3.631-1.628,3.631h.71l1.231-2.859.647,1.555h-.97l-.261.647h1.492l.323.71h.71l-1.628-3.642h-.647v-.042Zm-2.014,1.555h-1.43l-.261.584h1.106v.522a1.275,1.275,0,0,1-.908.386,1.233,1.233,0,0,1-1.231-1.231,1.216,1.216,0,0,1,1.753-1.106l.261-.584a1.811,1.811,0,0,0-.783-.2,1.889,1.889,0,1,0,0,3.778,1.92,1.92,0,0,0,1.555-.783h0v-1.367Zm-7.732-1.555h-.71v3.642h2.536v-.647h-1.889v-2.984h.063Z" transform="translate(-135.975 -129.717)"/>
  <g id="Gruppe_7230" data-name="Gruppe 7230" transform="translate(2.411 4.351)">
    <path id="Pfad_7038" data-name="Pfad 7038" d="M180.21,65.4h1.816a1.562,1.562,0,0,1,.584.125c.2.063.324.125.386.261a1.4,1.4,0,0,1,.261.386,1.3,1.3,0,0,1,.063.522,1.021,1.021,0,0,1-.063.459c-.063.136-.125.323-.261.386a1.042,1.042,0,0,1-.459.261,1.956,1.956,0,0,1-.584.125H180.2C180.21,67.936,180.21,65.4,180.21,65.4Zm1.617,2.014a.763.763,0,0,0,.584-.2.752.752,0,0,0,.2-.522.725.725,0,0,0-.2-.522.81.81,0,0,0-.584-.261h-.908V67.4h.908Z" transform="translate(-175.734 -65.014)" fill="#002454"/>
    <path id="Pfad_7039" data-name="Pfad 7039" d="M270.683,68H269.9V65.4h1.816a1.122,1.122,0,0,1,.783.2c.2.125.261.323.261.647a.725.725,0,0,1-.2.522.628.628,0,0,1-.324.2l.522,1.044h-.783l-.459-.908h-.845V68Zm.97-1.492a2.985,2.985,0,0,0,.323-.063.241.241,0,0,0,.063-.2.252.252,0,0,0-.063-.2c-.063-.063-.125-.063-.323-.063h-.97v.584h.97Z" transform="translate(-256.073 -65.014)" fill="#002454"/>
    <path id="Pfad_7040" data-name="Pfad 7040" d="M140.061,61.7h-.97l-1.69,3.381h.845l.386-.845h1.816l.459.845h.845Zm-1.044,1.889.584-1.169.584,1.169Z" transform="translate(-137.4 -61.7)" fill="#002454"/>
    <path id="Pfad_7041" data-name="Pfad 7041" d="M301.4,65.4h-.908L299.2,68h.783l.261-.522h1.43l.261.522h.783Zm-.845,1.5.386-.783.386.783Z" transform="translate(-282.316 -65.014)" fill="#002454"/>
    <rect id="Rechteck_1024" data-name="Rechteck 1024" width="0.783" height="2.598" transform="translate(12.334 0.386)" fill="#002454"/>
    <path id="Pfad_7042" data-name="Pfad 7042" d="M216.436,65.4l-.72,1.3-.71-1.3H213.9V68h.783V66.183L215.716,68l1.043-1.816V68h.783V65.4Z" transform="translate(-205.917 -65.014)" fill="#002454"/>
    <path id="Pfad_7043" data-name="Pfad 7043" d="M336.145,64.424V61.7H335.3v3.381h2.859v-.657Z" transform="translate(-314.649 -61.7)" fill="#002454"/>
  </g>
</svg>
