<svg id="Ebene_1" xmlns="http://www.w3.org/2000/svg" width="48.075" height="48.002" viewBox="0 0 48.075 48.002">
  <g id="Gruppe_7261" data-name="Gruppe 7261">
    <path id="Pfad_7084" data-name="Pfad 7084" d="M64.971,182.1c0,3.083-.92,4.17-4.536,5.194l-1.913.543c-1.609.449-1.808.972-1.808,2.007v.679h8.026v2.895H52.963v-3.25c0-2.644.951-4.16,4.546-5.184l1.892-.543c1.568-.449,2.007-.9,2.007-2.059,0-1.348-.732-1.871-2.6-1.871a12.388,12.388,0,0,0-5.163,1.139v-1.829L20,193.215v3.146H67.918V174.1l-8.309,3.313C63.163,177.58,64.971,179.137,64.971,182.1Z" transform="translate(-20 -158.037)" fill="#8f9191"/>
    <path id="Pfad_7085" data-name="Pfad 7085" d="M20,54.554l47.908-19.1v.01h0V20.4H20ZM54.9,32.042A2.153,2.153,0,1,1,52.743,34.2,2.154,2.154,0,0,1,54.9,32.042ZM22.738,30.7a1.885,1.885,0,0,0,.93-.554,1.075,1.075,0,0,1,.847-.533s1.735-2.257,2.749-3.334a1,1,0,0,1,.8-.2l.084-.345s3.491-.418,5.121.125a1.98,1.98,0,0,1,1.954-2.3,2.362,2.362,0,0,1,2.122,1.557c.052.261-.1.439-.178.773a6.924,6.924,0,0,0-.01,1.233c-.042.146-.209.136-.345.334a4.773,4.773,0,0,0-.324.606l-.209.47L35.2,28.468A17.654,17.654,0,0,0,33.7,32.816c.857.073,4.734.638,4.734.638l.094.314a11.215,11.215,0,0,1,2.968.826,6.055,6.055,0,0,1,1.547.188c.031-.021.115-.1.146-.125,1.745.533,3.188,1.453,4.87,1.85,0,0,.784.2,1.056.24a8.7,8.7,0,0,0,1.348.167c.543.042.836.031,1.233.063.272.01.617-.031.732.376h0c.021.073-.052.125-.188.23l-.084.052.031.052c.021.042-.021.094-.073.125l-.125.063c-.063.031-.125.031-.136-.01l-.031-.052-.157.073.021.052c.021.042-.01.084-.073.115l-.136.063c-.052.031-.125.021-.136-.021l-.021-.052c-.5.23-1.056.481-1.63.742l.031.073c.021.042-.021.084-.073.115l-.136.063c-.063.031-.125.021-.136-.021l-.031-.073-.178.084.031.073c.021.042-.021.094-.073.125L49,39.285c-.063.021-.125.021-.146-.021l-.031-.073a.508.508,0,0,1-.742-.24,7.853,7.853,0,0,1-.157-.8.229.229,0,0,0-.167-.136c-2.519-.481-3.376.052-5-.345-.512-.125-.784-.6-1.411-.606-1.359-.042-1.766-.021-3.25-.073-.063.209-.073.261-.073.261l-5.2-.031.794.4.251,2.3a1.791,1.791,0,0,1-.272.063c.052.46.1,1.076.125,1.63.021.5.052,1.024.042,1.359a1.242,1.242,0,0,1-.146.617,1.429,1.429,0,0,1-.4.428,5.622,5.622,0,0,1-.481.3c-.24.146-.512.293-.648.355a.9.9,0,0,0,.073.178c-3.167,1.526-7.086,2.048-8.35,4.483-.146.282-.669.136-.679-.167a3.813,3.813,0,0,1,.01-.491h-.052a.106.106,0,0,1-.063-.125l.01-.136c0-.063.042-.125.073-.115h.021a2.96,2.96,0,0,1,.084-.418l-.052-.021c-.042-.021-.052-.073-.031-.136l.042-.136c.021-.063.073-.1.115-.084l.052.031c.23-.523.658-.763.867-1.254l-.031-.01c-.042-.021-.052-.073-.031-.136l.042-.136c.021-.063.073-.1.115-.084l.031.01a2.236,2.236,0,0,1,.1-.23L24.4,45.66c-.042-.021-.042-.084,0-.136l.073-.125c.031-.052.084-.084.125-.063l.021.01.021.01c.01,0,.021-.01.031-.01l.063-.063a.565.565,0,0,1,.669-.01,1.374,1.374,0,0,0,1.724-.115c1.233-1.108,2.675-2.613,3.762-2.665a12.694,12.694,0,0,1-.867-2.456l-.355-.073a17.085,17.085,0,0,1-.784-3.71,9.156,9.156,0,0,1-.01-2.059c-.084-.01-.24.115-.272.115a16.692,16.692,0,0,1,1.076-5.8l.982-.4c-.1-.01-.8-.042-2.665-.2-1.035.92-2.237,1.913-2.843,2.446a2.49,2.49,0,0,0-.272.669s-.314.272-.6.47c-.376.261-1.3.46-1.494.157-.042-.073-.031-.115.01-.157.146-.146.679-.408.867-.742a1.777,1.777,0,0,1-.878.272C22.644,31.029,22.592,30.747,22.738,30.7Z" transform="translate(-20 -20.4)" fill="#d10214"/>
    <path id="Pfad_7086" data-name="Pfad 7086" d="M45.416,58.252a1.928,1.928,0,0,0,.878-.272c-.178.334-.721.6-.867.742-.042.042-.052.073-.01.157.2.314,1.118.115,1.494-.157.282-.2.6-.47.6-.47a2.632,2.632,0,0,1,.272-.669c.606-.533,1.808-1.526,2.843-2.446,1.86.146,2.571.178,2.665.2l-.982.4a16.651,16.651,0,0,0-1.076,5.8c.042,0,.2-.125.272-.115a9.156,9.156,0,0,0,.01,2.059,17.748,17.748,0,0,0,.784,3.71l.355.073a13.436,13.436,0,0,0,.867,2.456c-1.087.052-2.529,1.557-3.762,2.665a1.388,1.388,0,0,1-1.724.115.565.565,0,0,0-.669.01l-.063.063a.038.038,0,0,1-.031.01l-.021-.01v-.01c-.031-.021-.084.01-.125.063l-.073.125c-.042.052-.042.115,0,.136l.042.031a2.236,2.236,0,0,0-.1.23l-.031-.01c-.042-.021-.084.021-.115.084l-.042.136c-.031.063-.01.125.031.136l.031.01c-.209.491-.638.732-.867,1.254l-.052-.021c-.042-.01-.084.031-.115.084l-.042.136c-.021.063-.01.125.031.136l.052.021a2.691,2.691,0,0,0-.084.418H45.73c-.042-.01-.073.052-.073.115l-.01.136c-.01.063.031.125.063.125h.052c-.01.125-.01.345-.01.491.021.3.533.449.679.167,1.265-2.425,5.194-2.958,8.35-4.484a.9.9,0,0,1-.073-.178c.136-.063.408-.209.648-.355a5.626,5.626,0,0,0,.481-.3,1.314,1.314,0,0,0,.4-.428,1.242,1.242,0,0,0,.146-.617c.01-.334-.021-.857-.042-1.359-.021-.554-.073-1.171-.125-1.63.063-.01.272-.063.272-.063l-.251-2.3-.794-.4,5.2.031s.01-.052.073-.261c1.474.052,1.892.031,3.25.073.627.01.9.481,1.411.606,1.62.4,2.466-.136,5,.345a.229.229,0,0,1,.167.136,7.857,7.857,0,0,0,.157.8.509.509,0,0,0,.742.24l.031.073c.021.042.084.042.146.021l.125-.063c.063-.031.094-.084.073-.125l-.031-.073.178-.084.031.073c.021.042.073.042.136.021l.136-.063c.052-.031.094-.073.073-.115l-.031-.073c.575-.261,1.129-.512,1.63-.742l.021.052c.021.042.084.042.136.021l.136-.063c.063-.031.094-.073.073-.115l-.021-.052.157-.073.031.052c.021.042.073.042.136.01l.125-.063a.128.128,0,0,0,.073-.125l-.031-.052.084-.052c.136-.1.209-.146.188-.23h0c-.115-.408-.449-.366-.732-.376-.4-.031-.69-.021-1.233-.063a10.664,10.664,0,0,1-1.348-.167c-.261-.052-1.056-.24-1.056-.24-1.683-.408-3.125-1.327-4.87-1.85-.031.021-.115.1-.146.125a6.055,6.055,0,0,0-1.547-.188A10.873,10.873,0,0,0,61.145,61l-.094-.314s-3.877-.564-4.734-.638A17.654,17.654,0,0,1,57.811,55.7l1.087.073.209-.47a3.657,3.657,0,0,1,.324-.606c.146-.2.3-.178.345-.334.063-.167-.136-.732.01-1.233.084-.334.23-.5.178-.773A2.362,2.362,0,0,0,57.842,50.8a1.98,1.98,0,0,0-1.954,2.3c-1.63-.543-5.121-.125-5.121-.125l-.084.345a.962.962,0,0,0-.8.2c-1.014,1.076-2.749,3.334-2.749,3.334a1.075,1.075,0,0,0-.847.533,1.745,1.745,0,0,1-.93.554C45.238,57.969,45.291,58.252,45.416,58.252Z" transform="translate(-42.647 -47.623)" fill="#fff"/>
    <path id="Pfad_7087" data-name="Pfad 7087" d="M335.453,136.106a2.153,2.153,0,1,0-2.153-2.153A2.148,2.148,0,0,0,335.453,136.106Z" transform="translate(-300.557 -120.158)" fill="#fff"/>
    <path id="Pfad_7088" data-name="Pfad 7088" d="M20,183.415h0v1.014L53.631,171.02v1.839a12.388,12.388,0,0,1,5.163-1.139c1.871,0,2.6.523,2.6,1.871,0,1.16-.428,1.609-2.007,2.059l-1.892.543c-3.6,1.024-4.546,2.55-4.546,5.184v3.25H64.741v-2.895H56.715v-.679c0-1.024.209-1.547,1.808-2.007l1.913-.543c3.616-1.024,4.536-2.111,4.536-5.194,0-2.947-1.808-4.515-5.361-4.672h-.031l8.34-3.323V164.3Z" transform="translate(-20 -149.261)" fill="#fff"/>
    <path id="Pfad_7089" data-name="Pfad 7089" d="M235.806,430.382V429.4H232.2v5.152h3.658v-.982h-2.372v-1.129h1.933v-.972h-1.933v-1.087Z" transform="translate(-210.023 -386.655)"/>
    <path id="Pfad_7090" data-name="Pfad 7090" d="M24.18,430.748c0-.867-.418-1.348-1.609-1.348H20v5.152h2.665c1.16,0,1.589-.491,1.589-1.4h0c0-.721-.251-1.014-1.045-1.191l-.125-.021.136-.042C23.93,431.71,24.18,431.417,24.18,430.748Zm-2.958-.47H22.3c.439,0,.617.178.617.648,0,.439-.2.627-.617.627H21.223Zm1.15,3.407h-1.15v-1.338h1.15c.439,0,.627.2.627.679C23.01,433.486,22.832,433.685,22.372,433.685Z" transform="translate(-20 -386.655)"/>
    <rect id="Rechteck_1029" data-name="Rechteck 1029" width="1.285" height="5.152" transform="translate(35.596 42.745)"/>
    <path id="Pfad_7091" data-name="Pfad 7091" d="M125.286,434.552h1.568V429.4h-1.191v3.731l-2.195-3.731H121.9v5.152h1.2v-3.721Z" transform="translate(-111.25 -386.655)"/>
    <path id="Pfad_7092" data-name="Pfad 7092" d="M184.078,431.971c0-1.829-.481-2.571-2.278-2.571h-2.3v5.152h2.3C183.555,434.552,184.078,433.758,184.078,431.971Zm-2.32,1.6h-.982v-3.188h.982c.752,0,.993.4.993,1.589C182.761,433.183,182.51,433.57,181.757,433.57Z" transform="translate(-162.831 -386.655)"/>
    <path id="Pfad_7093" data-name="Pfad 7093" d="M319.5,429.4v5.152H323v-.982h-2.216V429.4Z" transform="translate(-288.199 -386.655)"/>
    <path id="Pfad_7094" data-name="Pfad 7094" d="M68.7,429.4v3.47h0c0,1.212.7,1.766,2.237,1.766s2.237-.554,2.237-1.766V429.4H71.9v3.438c0,.575-.251.784-.951.784S70,433.4,70,432.838V429.4Z" transform="translate(-63.61 -386.655)"/>
    <path id="Pfad_7095" data-name="Pfad 7095" d="M384.349,429.514a5.122,5.122,0,0,1,1.589.272v-.993a4.645,4.645,0,0,0-1.7-.293c-1.787,0-2.634.8-2.634,2.665s.846,2.675,2.634,2.675a5.57,5.57,0,0,0,1.777-.272v-2.8H384v.9h.951v1.15a4.741,4.741,0,0,1-.679.042c-1.014,0-1.369-.418-1.369-1.693C382.927,429.953,383.272,429.514,384.349,429.514Z" transform="translate(-343.809 -385.849)"/>
    <path id="Pfad_7096" data-name="Pfad 7096" d="M431.039,429.4l-1.839,5.152h1.275l.355-1.076h2.017l.366,1.076h1.3L432.67,429.4Zm.073,3.146.742-2.331.732,2.331Z" transform="translate(-386.434 -386.655)"/>
    <path id="Pfad_7097" data-name="Pfad 7097" d="M275.98,429.6a4.808,4.808,0,0,1,1.568.272v-1a4.655,4.655,0,0,0-1.641-.272c-1.338,0-2.007.491-2.007,1.62,0,.878.293,1.244,1.191,1.432l.857.178c.481.1.585.2.585.543,0,.4-.261.554-.857.554a5.3,5.3,0,0,1-1.724-.282v1a5,5,0,0,0,1.735.293c1.39,0,2.069-.5,2.069-1.609,0-.92-.261-1.254-1.233-1.463l-.836-.178c-.418-.084-.564-.178-.564-.512C275.133,429.771,275.342,429.6,275.98,429.6Z" transform="translate(-247.365 -385.939)"/>
  </g>
</svg>
