<svg id="oefb-cup" xmlns="http://www.w3.org/2000/svg" width="26.804" height="48.179" viewBox="0 0 26.804 48.179">
  <rect id="Rechteck_1026" data-name="Rechteck 1026" width="26.772" height="40.237" transform="translate(0.032 7.942)" fill="#d5161a"/>
  <rect id="Rechteck_1027" data-name="Rechteck 1027" width="26.772" height="8.026" fill="#065ca8"/>
  <path id="Pfad_7044" data-name="Pfad 7044" d="M158.187,43.8a1.686,1.686,0,0,0-.231.863,1.372,1.372,0,0,0,.263.831,2.075,2.075,0,0,0,1.073.842,3.266,3.266,0,0,0,.778.137c.536.042,1.062.042,1.6.042a.092.092,0,0,1,.095.053c.074.158.158.305.242.463a.113.113,0,0,1,.021.063h-.421c-.494,0-.989-.011-1.483-.042a3.63,3.63,0,0,1-1.241-.252,2.5,2.5,0,0,1-1.4-1.452,1.492,1.492,0,0,1-.053-.884c.011-.021.011-.042.032-.063a1.877,1.877,0,0,1,.694-.589A.039.039,0,0,0,158.187,43.8Z" transform="translate(-153.726 -41.402)" fill="#fefdfd"/>
  <path id="Pfad_7045" data-name="Pfad 7045" d="M152.726,38.37a1.7,1.7,0,0,0-2.4-.137,1.9,1.9,0,0,0-.694,1.631,1.573,1.573,0,0,0,.284.821.246.246,0,0,0,.074.074,1.459,1.459,0,0,0,.778.2.211.211,0,0,1,.137.042,2.381,2.381,0,0,0,.547.316.62.62,0,0,1,.084.042,1.493,1.493,0,0,1-.747-.011,2.142,2.142,0,0,1-1.515-1.389,1.869,1.869,0,0,1,1.3-2.409,1.894,1.894,0,0,1,1.483.231,2.421,2.421,0,0,1,.621.515C152.716,38.328,152.737,38.339,152.726,38.37Z" transform="translate(-146.383 -35.751)" fill="#fefdfd"/>
  <path id="Pfad_7046" data-name="Pfad 7046" d="M176.758,45.4a1.6,1.6,0,0,1,.5.558,1.426,1.426,0,0,1,.032,1.42,1.235,1.235,0,0,1-.158.284.071.071,0,0,1-.063.042,2.911,2.911,0,0,1-.673-.116A1.774,1.774,0,0,0,176.758,45.4Z" transform="translate(-170.741 -42.833)" fill="#fefdfd"/>
  <path id="Pfad_7047" data-name="Pfad 7047" d="M141.84,70.952h-2.178c-.011-.021,0-.032.011-.042.074-.126.137-.242.21-.368a.07.07,0,0,1,.074-.042h1.2a.1.1,0,0,1,.074.021,2.737,2.737,0,0,0,.61.421C141.83,70.931,141.83,70.942,141.84,70.952Z" transform="translate(-137.864 -65.293)" fill="#fefdfd"/>
  <path id="Pfad_7048" data-name="Pfad 7048" d="M295.3,44.463a1.765,1.765,0,0,1,1.094-1.62,1.815,1.815,0,0,1,1.946.368,1.745,1.745,0,0,1,.242,2.23.1.1,0,0,0,.021.168c.063.063.179.126.179.2s-.116.137-.179.2-.147.189-.21.189-.147-.116-.21-.189-.095-.063-.168-.021a1.79,1.79,0,0,1-2.693-1.252A1.154,1.154,0,0,1,295.3,44.463Zm2.777.631a1.21,1.21,0,0,0,.168-.652,1.162,1.162,0,0,0-1.378-1.147,1.14,1.14,0,0,0-.873.821,1.173,1.173,0,0,0,.263,1.189,1.087,1.087,0,0,0,1.283.274c.137-.063.137-.063.032-.168a2.3,2.3,0,0,0-.231-.221c-.053-.053-.063-.084-.011-.137a3.9,3.9,0,0,0,.294-.295c.042-.042.063-.053.116,0C297.846,44.863,297.961,44.968,298.077,45.095Z" transform="translate(-277.133 -40.424)" fill="#fefdfd"/>
  <path id="Pfad_7049" data-name="Pfad 7049" d="M252.756,45.628V43.661c0-.074.021-.095.095-.095a3.1,3.1,0,0,0,.442,0c.084,0,.095.021.095.105v3.114c0,.095-.032.105-.116.116a.392.392,0,0,1-.389-.179c-.5-.6-1.031-1.178-1.546-1.767a.682.682,0,0,0-.084-.095.181.181,0,0,0-.021.126v1.767c0,.116-.032.137-.137.137-.137-.011-.273,0-.4,0-.063,0-.095-.011-.095-.084V43.651c0-.063.021-.084.084-.084a.429.429,0,0,1,.421.189c.5.6,1.031,1.189,1.546,1.778C252.683,45.565,252.714,45.586,252.756,45.628Z" transform="translate(-237.135 -41.189)" fill="#fefdfd"/>
  <path id="Pfad_7050" data-name="Pfad 7050" d="M216.2,44.688V43.7c0-.084.01-.116.105-.116a2.672,2.672,0,0,0,.41,0c.095,0,.116.021.116.116v1.609a1.52,1.52,0,0,0,.053.484.8.8,0,0,0,.831.61.818.818,0,0,0,.768-.694,1.156,1.156,0,0,0,.021-.274V43.7c0-.095.021-.126.116-.116.137.011.284,0,.431,0,.074,0,.095.011.095.095,0,.642.011,1.273,0,1.915a1.417,1.417,0,0,1-1.609,1.4,1.392,1.392,0,0,1-1.336-1.483Z" transform="translate(-206.354 -41.206)" fill="#fefdfd"/>
  <path id="Pfad_7051" data-name="Pfad 7051" d="M332.5,46.935h-.631c-.053,0-.063-.032-.084-.074-.063-.158-.137-.316-.189-.484a.094.094,0,0,0-.105-.074H330.22c-.063,0-.084.021-.116.074-.063.158-.126.316-.2.473-.021.042-.032.074-.084.074H329.2c.105-.231.2-.442.284-.663.368-.852.747-1.7,1.115-2.556a.149.149,0,0,1,.158-.105c.326,0,.326,0,.452.295.41.968.82,1.936,1.231,2.893C332.482,46.84,332.514,46.872,332.5,46.935Zm-2.114-1.178h.894c.053,0,.074,0,.053-.063-.147-.368-.295-.726-.452-1.115C330.7,44.978,330.546,45.367,330.389,45.756Z" transform="translate(-307.467 -41.223)" fill="#fefdfd"/>
  <path id="Pfad_7052" data-name="Pfad 7052" d="M284,45.246V43.7c0-.095.021-.126.116-.116.147.011.305,0,.452,0,.063,0,.084.021.084.084v3.156c0,.063-.021.084-.084.084-.158,0-.305-.011-.463,0-.084,0-.105-.021-.105-.105Z" transform="translate(-267.022 -41.206)" fill="#fefdfd"/>
  <path id="Pfad_7053" data-name="Pfad 7053" d="M197.539,144.467v8.216c0,.189-.042.252-.231.242a4.214,4.214,0,0,0-.631,0c-.105,0-.147-.021-.147-.137.011-1.136-.042-2.272-.116-3.408-.095-1.41-.242-2.819-.452-4.218a47.439,47.439,0,0,0-1.262-5.922,38.349,38.349,0,0,0-2.44-6.554,6.063,6.063,0,0,0-.305-.579c-.063-.105-.063-.158.074-.2a20.641,20.641,0,0,1,2.388-.547,24.292,24.292,0,0,1,2.619-.274c.116-.01.158.032.179.147.084.621.095,1.252.126,1.872.063,1.515.095,3.04.105,4.555.011,1.42.042,2.84.053,4.26.011.842,0,1.694,0,2.535A.08.08,0,0,0,197.539,144.467Z" transform="translate(-184.621 -119.505)" fill="#fefdfd"/>
  <path id="Pfad_7054" data-name="Pfad 7054" d="M255.042,150.708c.105-2.125.221-4.25.4-6.364.137-1.725.316-3.45.526-5.165.273-2.167.631-4.313,1.115-6.438.032-.147.095-.2.253-.179a21.3,21.3,0,0,1,3.135.663c.158.053.189.084.116.242a51.378,51.378,0,0,0-3.314,10.151c-.379,1.746-.684,3.513-.894,5.291-.179,1.5-.316,3.009-.347,4.523-.01.221-.01.452-.01.673,0,.095-.021.126-.126.126q-.379-.016-.757,0c-.105,0-.137-.032-.137-.137.011-.757.011-1.515.042-2.283C255.053,151.455,255.042,151.076,255.042,150.708Z" transform="translate(-241.072 -120.822)" fill="#fefdfd"/>
  <path id="Pfad_7055" data-name="Pfad 7055" d="M274,169.362a44.006,44.006,0,0,1,.389-4.4,40.533,40.533,0,0,1,1.273-6.017,24.062,24.062,0,0,1,2.977-6.6,15.709,15.709,0,0,1,1.462-1.872c.105-.126.179-.116.305-.042a9.578,9.578,0,0,1,1.452,1.073c.126.116.137.189.021.326a30.619,30.619,0,0,0-4.281,6.5,28.515,28.515,0,0,0-2.535,7.879,20.075,20.075,0,0,0-.305,3.808c0,.126-.032.158-.147.147-.137-.011-.263,0-.4,0-.252,0-.252,0-.242-.263C273.983,169.741,273.993,169.551,274,169.362Z" transform="translate(-258.046 -136.773)" fill="#fefdfd"/>
  <path id="Pfad_7056" data-name="Pfad 7056" d="M157.584,169.325a26.279,26.279,0,0,0-1.3-7.1,30.246,30.246,0,0,0-5.8-10.3c-.126-.158-.137-.231.021-.368a9.849,9.849,0,0,1,1.42-1.041c.147-.084.21-.084.305.063a28.574,28.574,0,0,1,3.219,5.754,37.751,37.751,0,0,1,2.272,7.69,42.591,42.591,0,0,1,.663,5.659c.01.179.084.421-.021.536s-.337.021-.515.032h-.158c-.095.011-.105-.032-.105-.116.011-.252,0-.5,0-.757Z" transform="translate(-147.464 -136.841)" fill="#fefdfd"/>
  <path id="Pfad_7057" data-name="Pfad 7057" d="M271.509,367.583a.8.8,0,0,1,.41.379,1.053,1.053,0,0,1-.747,1.567,2.207,2.207,0,0,1-.452.053h-1.715c-.084,0-.105-.021-.105-.105v-3.471c0-.095.021-.105.116-.105h1.725a1.5,1.5,0,0,1,.7.158.906.906,0,0,1,.158,1.462A.364.364,0,0,0,271.509,367.583Zm-1.22,1.325h.494a.433.433,0,0,0,.452-.326.452.452,0,0,0-.473-.61c-.326-.01-.652,0-.978,0-.063,0-.084.021-.084.084v.768c0,.063.021.084.084.084C269.952,368.9,270.12,368.909,270.289,368.909Zm-.032-1.546a3.177,3.177,0,0,0,.536-.021.391.391,0,0,0,.316-.442.321.321,0,0,0-.358-.337c-.326-.021-.642,0-.968-.01-.074,0-.074.031-.074.084v.631c0,.074.032.095.095.084C269.941,367.362,270.078,367.362,270.257,367.362Z" transform="translate(-253.51 -329.618)" fill="#fefdfd"/>
  <path id="Pfad_7058" data-name="Pfad 7058" d="M200.9,366.761a1.8,1.8,0,0,1,3.556-.294,2.135,2.135,0,0,1-.2,1.525,1.752,1.752,0,0,1-1.715.884A1.882,1.882,0,0,1,200.9,366.761Zm.8.084a1.768,1.768,0,0,0,.2.926.944.944,0,0,0,1.588.021,1.591,1.591,0,0,0,.032-1.63.939.939,0,0,0-1.63-.021A1.646,1.646,0,0,0,201.7,366.846Z" transform="translate(-192.662 -328.839)" fill="#fefdfd"/>
  <path id="Pfad_7059" data-name="Pfad 7059" d="M237.2,410.825v-1.2c0-.084.011-.116.105-.116a5.287,5.287,0,0,0,.579,0c.084,0,.116.021.116.105v2.062a1.9,1.9,0,0,0,.042.421.548.548,0,0,0,.452.442,1.247,1.247,0,0,0,.558,0,.581.581,0,0,0,.463-.5,3.032,3.032,0,0,0,.021-.431v-1.978c0-.095.032-.126.126-.126.2.01.389,0,.589,0,.063,0,.084.01.084.084,0,.768.011,1.546-.01,2.314a1.326,1.326,0,0,1-1.368,1.368,2.418,2.418,0,0,1-.726-.053,1.3,1.3,0,0,1-1.031-1.346C237.2,411.53,237.2,411.173,237.2,410.825Z" transform="translate(-225.145 -368.632)" fill="#fefdfd"/>
  <path id="Pfad_7060" data-name="Pfad 7060" d="M204.049,410.076a.957.957,0,0,1-.347-.011c-.116-.042-.095-.189-.147-.284a.821.821,0,0,0-.789-.41.912.912,0,0,0-.852.663,1.692,1.692,0,0,0,.074,1.357.907.907,0,0,0,1.357.3.951.951,0,0,0,.305-.642c.011-.074.032-.105.105-.095a5.482,5.482,0,0,0,.589,0c.084,0,.095.021.095.105a1.54,1.54,0,0,1-1.494,1.483,1.73,1.73,0,0,1-1.3-.431,1.769,1.769,0,0,1-.6-1.22,1.984,1.984,0,0,1,.515-1.683,1.754,1.754,0,0,1,1.494-.5,1.616,1.616,0,0,1,1.01.442,1.272,1.272,0,0,1,.379.82c.011.063,0,.105-.084.095A2.945,2.945,0,0,1,204.049,410.076Z" transform="translate(-192.772 -367.914)" fill="#fefdfd"/>
  <path id="Pfad_7061" data-name="Pfad 7061" d="M270.41,411.441v-1.736c0-.063,0-.105.095-.105.579.011,1.168,0,1.746.011a1.118,1.118,0,0,1,.915.421,1.214,1.214,0,0,1,.116,1.273,1.042,1.042,0,0,1-.978.61c-.326.032-.663.011-.989.011-.084,0-.116.021-.116.116v1.136c0,.084-.021.105-.105.105a5.679,5.679,0,0,0-.6,0c-.084,0-.095-.032-.095-.105C270.41,412.6,270.41,412.019,270.41,411.441Zm1.347-1.168H271.3c-.063,0-.095.01-.095.084v.82c0,.063.021.084.084.084h.8a.711.711,0,0,0,.284-.074.492.492,0,0,0,.221-.515.387.387,0,0,0-.347-.379A2.009,2.009,0,0,0,271.757,410.273Z" transform="translate(-254.852 -368.721)" fill="#fefdfd"/>
  <path id="Pfad_7062" data-name="Pfad 7062" d="M239.311,367.551v-1.725c0-.084.011-.126.116-.126h2.441c.084,0,.105.021.105.105a3.885,3.885,0,0,0,0,.494c0,.095-.032.105-.116.105h-1.63c-.095,0-.126.021-.126.126a4.223,4.223,0,0,1,0,.516c-.011.105.032.116.126.116h1.389c.095,0,.116.032.116.116a3.242,3.242,0,0,0,0,.452c.011.095-.032.105-.116.105h-1.4c-.095,0-.116.021-.116.116V369.3c0,.074-.011.105-.095.105a5.712,5.712,0,0,0-.6,0c-.084,0-.105-.032-.105-.105C239.321,368.709,239.311,368.13,239.311,367.551Z" transform="translate(-227.024 -329.439)" fill="#fefdfd"/>
  <path id="Pfad_7063" data-name="Pfad 7063" d="M238.061,350.288h-2.735c-.095,0-.126-.021-.126-.126.011-.168,0-.337,0-.5,0-.053.011-.084.074-.074h5.5c.105,0,.137.021.126.126a3.4,3.4,0,0,0,0,.463c0,.095-.021.116-.116.116Z" transform="translate(-223.355 -315.016)" fill="#fefdfd"/>
  <path id="Pfad_7064" data-name="Pfad 7064" d="M211.842,349.6h.726c.074,0,.095.021.095.095v.526c0,.063-.021.084-.084.084h-1.5c-.053,0-.074-.021-.074-.074v-.557c0-.063.032-.074.084-.074Z" transform="translate(-201.701 -315.033)" fill="#fefdfd"/>
</svg>
