<svg id="ec5dfecf-12ef-4af9-b027-86e5410fd4e1" xmlns="http://www.w3.org/2000/svg" width="47.315" height="47.264" viewBox="0 0 47.315 47.264">
  <path id="bfca7a78-7379-454b-8b62-3c2d9d53afce" d="M24.39,431.909c0,.906-.422,1.39-1.565,1.39H20.2v-5.075h2.522c1.184,0,1.585.463,1.585,1.318,0,.649-.247.957-.947,1.132h-.01c.8.175,1.04.474,1.04,1.184ZM21.4,430.334h1.06c.422,0,.618-.185.618-.618s-.175-.638-.618-.638h-1.05l-.01,1.256Zm1.75,1.472c0-.463-.185-.659-.618-.659H21.415v1.318h1.163c.453,0,.628-.2.628-.649h-.051Zm2.069-.144v-3.449H26.49V431.6c0,.546.257.731.937.731s.937-.216.937-.731v-3.387H29.63v3.418c0,1.184-.7,1.74-2.2,1.74s-2.2-.535-2.2-1.74Zm10.346-3.418v5.075H34.026l-2.162-3.665v3.665H30.69v-5.1h1.544l2.152,3.665v-3.665Zm1.04,0h2.265c1.771,0,2.2.731,2.2,2.533s-.515,2.543-2.2,2.543H36.61v-5.075Zm2.2,4.108c.731,0,.988-.391.988-1.575s-.247-1.565-.988-1.565h-.957v3.14Zm3.2-4.118h3.552v.968H43.3v1.06H45.2v.957H43.3v1.112h2.337v.968h-3.6Zm4.355,4.88v-1.019a5.015,5.015,0,0,0,1.7.268c.587,0,.844-.154.844-.546s-.113-.443-.577-.546l-.8-.165c-.885-.185-1.174-.546-1.174-1.41,0-1.112.659-1.6,1.977-1.6a4.807,4.807,0,0,1,1.616.278v.988a4.641,4.641,0,0,0-1.544-.268c-.628,0-.834.165-.834.556s.144.422.556.5l.824.175c.957.2,1.215.525,1.215,1.472,0,1.081-.669,1.575-2.028,1.575a5.065,5.065,0,0,1-1.709-.257Zm4.622-4.88h1.266v4.1h2.2v.968H51Zm4.231,0h1.266v5.075H55.233Zm6.506,2.141v2.759a5.966,5.966,0,0,1-1.75.268c-1.76,0-2.594-.782-2.594-2.625s.844-2.666,2.615-2.666a4.681,4.681,0,0,1,1.678.288v.978a5.111,5.111,0,0,0-1.575-.268c-1.06,0-1.4.422-1.4,1.627s.35,1.657,1.359,1.657a4.719,4.719,0,0,0,.659-.041V431.24h-.947v-.885Zm4.139,1.843H63.891l-.35,1.06H62.285L64.1,428.2h1.616l1.8,5.075H66.239Zm-.978-3.2-.731,2.285h1.472Z" transform="translate(-20.2 -386.138)" fill="#010101"/>
  <rect id="fa3c1343-6a02-485e-9adc-15cfb2f7ae08" width="47.15" height="37.72" transform="translate(0.082)" fill="#d2121a"/>
  <path id="f4385706-2561-4e62-9001-2d0d1248b500" d="M82.523,67.091c0,.093-.062.154-.226.278l-.1.062v.062a.13.13,0,0,1-.093.144l-.154.082h-.165l-.041-.062-.2.093v.062a.13.13,0,0,1-.093.144l-.154.072a.216.216,0,0,1-.165,0l.031-.124-1.977.906.041.093a.13.13,0,0,1-.093.144l-.154.072a.211.211,0,0,1-.165,0l-.041-.093-.226.113.041.093a.135.135,0,0,1-.093.144l-.154.072h-.165l-.041-.072a.623.623,0,0,1-.854-.175.381.381,0,0,1-.051-.113,7.627,7.627,0,0,1-.2-.988.245.245,0,0,0-.206-.165c-3.068-.587-4.108.072-6.074-.422-.628-.144-.957-.731-1.719-.731-1.657-.051-2.152,0-3.953-.093l-.093.319H58.649l.968.474.3,2.749c-.113.031-.226.062-.34.082.062.556.124,1.318.154,2s.062,1.246.051,1.647a1.512,1.512,0,0,1-.185.731,1.482,1.482,0,0,1-.422.556c-.062.041-.309.216-.587.371s-.628.35-.8.422l.093.216c-3.84,1.843-8.658,2.481-10.2,5.446-.185.34-.8.165-.824-.206v-.6h-.062c-.051,0-.093-.062-.082-.144v-.175c0-.082.041-.144.093-.144h.062a3.969,3.969,0,0,1,.093-.5h-.062c-.041,0-.062-.093,0-.165l.062-.165a.131.131,0,0,1,.134-.113h.062c.278-.638.8-.927,1.06-1.534h0c-.051,0-.062-.093-.041-.165l.051-.165a.119.119,0,0,1,.144-.1h.021c.041-.093.082-.2.134-.288l-.051-.041c-.041,0-.041-.1,0-.165l.093-.144c0-.062.113-.1.144-.072h0l.072-.082a.728.728,0,0,1,.834-.01,1.7,1.7,0,0,0,2.1-.134c1.472-1.349,3.263-3.181,4.581-3.243a15.44,15.44,0,0,1-1.05-3l-.432-.093a21.949,21.949,0,0,1-.957-4.519,11.385,11.385,0,0,1,0-2.512c-.093,0-.288.144-.34.144-.247-.6.546-5.611,1.318-7.062l1.194-.474c-.124,0-.988-.051-3.253-.247-1.277,1.132-2.738,2.337-3.48,3a3.916,3.916,0,0,0-.34.8,7.815,7.815,0,0,1-.731.577c-.453.319-1.575.577-1.822.185-.062-.093-.041-.134,0-.185.165-.185.834-.494,1.05-.906a2.19,2.19,0,0,1-1.071.34c-.134,0-.206-.34,0-.4a2.149,2.149,0,0,0,1.132-.679,1.3,1.3,0,0,1,1.029-.649s2.11-2.749,3.356-4.066a1.235,1.235,0,0,1,.978-.247l.113-.422s4.252-.5,6.239.154a2.361,2.361,0,0,1,2.347-2.78,2.91,2.91,0,0,1,2.594,1.894c.062.319-.124.525-.226.937a9.16,9.16,0,0,0,0,1.5c-.051.175-.247.165-.422.391a4.168,4.168,0,0,0-.391.731l-.257.577-1.318-.093a21.855,21.855,0,0,0-1.832,5.3h0c1.04.093,5.765.772,5.765.772l.113.381a13.41,13.41,0,0,1,3.614,1.019,7.131,7.131,0,0,1,1.874.226c.041,0,.144-.124.185-.154,2.131.649,3.881,1.771,5.93,2.265,0,0,.957.237,1.277.3a14.712,14.712,0,0,0,1.647.216c.659.051,1.019.041,1.472.072.34,0,.731,0,.885.453m3.088-6.465a2.62,2.62,0,1,0,2.615,2.625h0a2.627,2.627,0,0,0-2.615-2.625Z" transform="translate(-43.567 -47.232)" fill="#fff"/>
</svg>
