<svg id="dfb-pokal" xmlns="http://www.w3.org/2000/svg" width="34.019" height="48.179" viewBox="0 0 34.019 48.179">
  <g id="Background_7C">
    <path id="_x3C_Path_x3E_" d="M112.3,29.206l.524-7.552-.765-.377C109.705,20.126,106.123,20,104.7,20h-1.257v2.273l-6.756.953.408,5.98a17.02,17.02,0,1,0,15.208,0Z" transform="translate(-87.7 -20)" fill="#fff"/>
  </g>
  <g id="Typo_positiv_7C" transform="translate(1.875 44.084)">
    <g id="_x3C_Group_x3E_" transform="translate(0)">
      <path id="_x3C_Compound_Path_x3E_" d="M106.867,445.628H105.6V441.7h1.267c1.351,0,2.137.712,2.137,1.927A1.9,1.9,0,0,1,106.867,445.628Zm.052-3.184h-.461v2.419h.461a1.117,1.117,0,0,0,1.225-1.236A1.1,1.1,0,0,0,106.92,442.444Z" transform="translate(-105.6 -441.616)" fill="#2c2e35" fill-rule="evenodd"/>
      <path id="_x3C_Path_x3E__00000065046420295038911270000001710797320120110768_" d="M146.43,442.354h-1.582v1.068h1.435v.723h-1.435v1.383H144V441.6h2.43Z" transform="translate(-139.978 -441.527)" fill="#2c2e35"/>
      <path id="_x3C_Compound_Path_x3E__00000047051890989428653320000012263030637698489271_" d="M174.962,445.628H173.6V441.7h1.278c.922,0,1.383.388,1.383,1.016a.867.867,0,0,1-.628.9v.01a.894.894,0,0,1,.765.911C176.4,445.2,175.915,445.628,174.962,445.628Zm-.1-3.215h-.408v.911h.408c.377,0,.576-.178.576-.471S175.244,442.412,174.857,442.412Zm.052,1.561h-.461v.943h.471c.429,0,.639-.168.639-.471S175.328,443.973,174.909,443.973Z" transform="translate(-166.478 -441.616)" fill="#2c2e35" fill-rule="evenodd"/>
      <path id="_x3C_Path_x3E__00000062870959581972368820000010343748256654861722_" d="M206.077,457.97H204.6v-.67h1.477Z" transform="translate(-194.231 -455.582)" fill="#2c2e35"/>
      <path id="_x3C_Compound_Path_x3E__00000145744812496282279280000016116265583686546310_" d="M226.925,444.423h-.377v1.2H225.7V441.7h1.246c1.026,0,1.582.492,1.582,1.341C228.528,443.868,227.941,444.423,226.925,444.423Zm.021-1.99h-.4V443.7h.408c.482,0,.733-.241.733-.639S227.418,442.433,226.946,442.433Z" transform="translate(-213.121 -441.616)" fill="#2c2e35" fill-rule="evenodd"/>
      <path id="_x3C_Compound_Path_x3E__00000116200422782238575170000011518391400928721597_" d="M261.453,442.942A1.946,1.946,0,0,1,259.421,445a1.927,1.927,0,0,1-2.021-2.053,2.027,2.027,0,1,1,4.053,0Zm-3.195-.01a1.173,1.173,0,1,0,1.173-1.278A1.166,1.166,0,0,0,258.259,442.932Z" transform="translate(-241.501 -440.9)" fill="#2c2e35" fill-rule="evenodd"/>
      <path id="_x3C_Path_x3E__00000046301782238544789040000017336163475920080516_" d="M303.257,444.067l-.408.492v1.068H302V441.7h.848v1.781l1.424-1.781h1.005l-1.445,1.781,1.55,2.147h-1.068Z" transform="translate(-281.43 -441.616)" fill="#2c2e35"/>
      <path id="_x3C_Compound_Path_x3E__00000028314961627986851600000004691130872314070449_" d="M339.256,444.953h-1.383l-.283.765h-.89l1.435-3.572-.147-.346h.9l1.571,3.928h-.922Zm-1.131-.681h.89l-.44-1.194h-.01Z" transform="translate(-312.495 -441.706)" fill="#2c2e35" fill-rule="evenodd"/>
      <path id="_x3C_Path_x3E__00000067221299183872747850000013479508190215306942_" d="M379.348,444.863h1.435v.765H378.5V441.7h.848Z" transform="translate(-349.917 -441.616)" fill="#2c2e35"/>
    </g>
  </g>
  <g id="Ring_7C" transform="translate(1.267 10.578)">
    <g id="_x3C_Group_x3E__00000132777670633268077190000006490516418213960354_" transform="translate(0)">
      <path id="_x3C_Path_x3E__00000087410737645211208920000008273555738556306568_" d="M320.636,121a15.758,15.758,0,0,1,4.86,23.587l-1.152-.911A14.3,14.3,0,0,0,320.5,122.6C320.542,122.079,320.594,121.534,320.636,121Z" transform="translate(-297.385 -121)" fill="#85878b"/>
      <path id="_x3C_Path_x3E__00000172426209411598464040000007162370826081181622_" d="M303.03,345.7l1.079.995a15.839,15.839,0,0,1-6.106,4.1l-.5-1.372A14.586,14.586,0,0,0,303.03,345.7Z" transform="translate(-276.793 -322.166)" fill="#f4b24e"/>
      <path id="_x3C_Path_x3E__00000127022001678058736190000001068093874383870099_" d="M217.459,384.4l.4,1.414a15.613,15.613,0,0,1-4.284.587,16,16,0,0,1-4.273-.587l.4-1.414a14.363,14.363,0,0,0,7.761,0Z" transform="translate(-197.831 -356.812)" fill="#ee2915"/>
      <path id="_x3C_Path_x3E__00000000196196666786500830000017651283299068483238_" d="M146.319,349.408l-.5,1.372A15.852,15.852,0,0,1,139.7,346.7l1.079-.995A14.209,14.209,0,0,0,146.319,349.408Z" transform="translate(-135.521 -322.166)" fill="#2c2e35"/>
      <path id="_x3C_Path_x3E__00000044886987729165876440000006884051274019467930_" d="M108.032,121c.042.534.094,1.079.136,1.613a14.282,14.282,0,0,0-3.833,21.073l-1.152.911a15.755,15.755,0,0,1,4.849-23.6Z" transform="translate(-99.8 -121)" fill="#85878b"/>
    </g>
  </g>
  <g id="Cup_7C" transform="translate(10.306 1.257)">
    <path id="_x3C_Compound_Path_x3E__00000032646869491750259680000001773184458077034124_" d="M197.131,65.526a11.22,11.22,0,0,0,5.5,1.362V64.751Zm2.577-8.945a5.172,5.172,0,0,1,2.922.754l4.881-.691a7.869,7.869,0,0,0-2.021-.88Zm2.021-4.462,3.488-.492a7.537,7.537,0,0,0-1.948-.89l-6.169.869A13.4,13.4,0,0,1,201.729,52.12Zm-.89-3.362a14.866,14.866,0,0,1,4.21.1l3.341-.471a6.8,6.8,0,0,0-1.142-.534Zm-.3-2.273a16.856,16.856,0,0,1,4.525.052l3.488-.492a5.949,5.949,0,0,0-1.194-.524Zm-.22-8.1a21.546,21.546,0,0,1,4.786.021l4.022-.566a7.925,7.925,0,0,0-1.278-.513Zm-.325-2.273a23.726,23.726,0,0,1,5.122-.031l4.169-.587a8.059,8.059,0,0,0-1.32-.513Zm9.447-2.964A17.324,17.324,0,0,0,202.63,32v1.634a23.573,23.573,0,0,1,2.482.126Z" transform="translate(-195.948 -32)" fill="#361e11" fill-rule="evenodd"/>
    <path id="_x3C_Compound_Path_x3E__00000138569841029257355240000011192699903035737268_" d="M199.59,43l-.115,1.644-13.26,1.864L186.1,44.9Zm-1.047,15.239-.115,1.644-11.186,1.571-.115-1.613Zm.157-2.346-.115,1.644-11.5,1.613-.115-1.613Zm.576-8.2-.524,7.51-11.825,1.655-.513-7.363Zm.157-2.346-.115,1.644-12.945,1.822-.115-1.613ZM187.807,67.875l9.856-1.383.513,7.363-10.882,1.529Zm2.346-5.666,5.216-.733.283,4.137-5.792.817Zm2.629-12.38a2.357,2.357,0,1,0,2.357,2.357A2.353,2.353,0,0,0,192.782,49.829Z" transform="translate(-186.1 -41.848)" fill="#f4b24e" fill-rule="evenodd"/>
    <g id="_x3C_Group_x3E__00000016044755356616815550000003834259792956198795_" transform="translate(4.336 7.991)">
      <path id="_x3C_Path_x3E__00000144306834899499002120000000403672842537699251_" d="M232.213,110.656a2.357,2.357,0,1,1-2.357-2.357A2.353,2.353,0,0,1,232.213,110.656Z" transform="translate(-227.5 -108.299)" fill="#009e67"/>
      <path id="_x3C_Compound_Path_x3E__00000031910610721725748430000000593488346354423208_" d="M239.482,114.7l.786.461-1.9,1.089v-.367l1.278-.733-.482-.283-1.058.607v.922l-.314.178v-.922l-.8.461v-2.849l.8.461V112.8l.964.555v.367l-.649-.377v.555l.649.377v.346l-.649-.377v.859l1.54-.88-.628-.356V113.5l1.246.723Zm-1.676-.618-.482-.283v1.781l.482-.283Z" transform="translate(-236.005 -112.329)" fill="#fff" fill-rule="evenodd"/>
    </g>
  </g>
</svg>
