<svg id="ski-alpin" xmlns="http://www.w3.org/2000/svg" xmlns:xlink="http://www.w3.org/1999/xlink" width="44.128" height="47.872" viewBox="0 0 44.128 47.872">
  <defs>
    <linearGradient id="linear-gradient" x1="0.142" y1="0.42" x2="0.954" y2="1.189" gradientUnits="objectBoundingBox">
      <stop offset="0" stop-color="#eebd30"/>
      <stop offset="1" stop-color="#fcefd0"/>
    </linearGradient>
    <linearGradient id="linear-gradient-2" x1="0.226" y1="0.073" x2="0.984" y2="0.772" gradientUnits="objectBoundingBox">
      <stop offset="0.4" stop-color="#29539c"/>
      <stop offset="1" stop-color="#c2c9e2"/>
    </linearGradient>
  </defs>
  <path id="Pfad_7125" data-name="Pfad 7125" d="M38.4,267.8h7.587v1.813H40.609v2.4h4.721V273.8H40.609v4.356H38.4Z" transform="translate(-38.4 -241.964)" fill="#010101" fill-rule="evenodd"/>
  <rect id="Rechteck_1250" data-name="Rechteck 1250" width="2.22" height="10.37" transform="translate(19.197 25.836)" fill="#010101"/>
  <path id="Pfad_7126" data-name="Pfad 7126" d="M375.8,272.286a2.072,2.072,0,0,0,.4,1.063,2.406,2.406,0,0,0,1.9.667,4.115,4.115,0,0,0,1.334-.167,1.226,1.226,0,0,0,.959-1.2.861.861,0,0,0-.469-.792,4.946,4.946,0,0,0-1.48-.49l-1.146-.25a7.521,7.521,0,0,1-2.4-.823,2.513,2.513,0,0,1-1.053-2.251,2.923,2.923,0,0,1,1.053-2.3,4.6,4.6,0,0,1,3.1-.928,4.852,4.852,0,0,1,2.918.865,3.073,3.073,0,0,1,1.261,2.522h-2.137a1.457,1.457,0,0,0-.855-1.334,2.937,2.937,0,0,0-1.334-.261,2.567,2.567,0,0,0-1.407.344,1.051,1.051,0,0,0-.531.938.912.912,0,0,0,.511.834,6.644,6.644,0,0,0,1.407.427l1.876.438a4.761,4.761,0,0,1,1.876.761,2.535,2.535,0,0,1,.959,2.116,2.953,2.953,0,0,1-1.126,2.355,4.859,4.859,0,0,1-3.189.938,5.3,5.3,0,0,1-3.345-.928,3.027,3.027,0,0,1-1.2-2.543Z" transform="translate(-338.732 -239.279)" fill="#010101" fill-rule="evenodd"/>
  <path id="Pfad_7127" data-name="Pfad 7127" d="M87.488,42.391c.125-.125.177-.219.3-.354s.2-.2.323-.344a4.116,4.116,0,0,1,.3-.406,1.57,1.57,0,0,1,.24-.219c.083-.1.146-.135.24-.24a2.474,2.474,0,0,1,.271-.354c.135-.115.146-.083.219-.156s0-.146.083-.188.094,0,.1,0,.115-.125.188-.2a2.158,2.158,0,0,0,.219-.219c.083-.1.052-.135.135-.188s.083,0,.1-.052.063-.052.156-.135,0-.1.052-.167a.318.318,0,0,1,.167-.083c.042,0,0-.083.083-.1a.487.487,0,0,1,.1-.052c.063-.042.063-.115.1-.188s.1-.063.156-.1,0-.094.052-.135c.1-.156.24-.177.386-.292a2.7,2.7,0,0,0,.24-.292l.083-.1a.674.674,0,0,0,.156-.115,1.283,1.283,0,0,1,.219-.219c.031,0,0-.042,0-.083s.1-.031.156-.083a.934.934,0,0,0,.156-.188c.115-.125.229-.24.354-.354a3.011,3.011,0,0,0,.292-.219c.135-.125.083-.167.156-.271s.177-.146.271-.25.177-.125.24-.271.135-.094.219-.156a1.637,1.637,0,0,0,.25-.219,2.217,2.217,0,0,0,.271-.271c.063-.094.135-.135.156-.271s.073,0,.1,0,.188-.271.323-.438a2.619,2.619,0,0,0,.323-.271.969.969,0,0,0,.24-.219s-.073-.031-.052-.052a3.6,3.6,0,0,0,.271-.292l.1-.1.083-.052c.042-.031.042-.063.083-.1a.227.227,0,0,0,.083-.052c.042-.042.042-.083.083-.115s.083,0,.1,0l.167-.219c.1-.094.167-.135.271-.24l.219-.135c.063-.063,0-.135.083-.2s.115-.042.167-.083.167-.2.292-.292a.683.683,0,0,1,.188-.156l.083-.115.135-.135c.094-.083.167-.125.271-.219a1.908,1.908,0,0,0,.271-.375h.1a2.22,2.22,0,0,0,.323-.3,1.8,1.8,0,0,0,.292-.271,1.781,1.781,0,0,0,.271-.219,1.592,1.592,0,0,0,.344-.3c.094-.115.177-.135.271-.24a5.342,5.342,0,0,1,.438-.459,5.186,5.186,0,0,1,.49-.344.293.293,0,0,1,.083-.083.224.224,0,0,1,.083,0,.835.835,0,0,0,.135-.2,5.865,5.865,0,0,1,.459-.427c.156-.125.271-.146.427-.271a1.751,1.751,0,0,1,.188-.219l.115-.083a1.751,1.751,0,0,0,.219-.188,1.53,1.53,0,0,0,.1-.135,1.052,1.052,0,0,0,.135-.167.144.144,0,0,1,.052-.1c.052-.042.063,0,.083-.052a.166.166,0,0,1,.115-.1c.063-.031.083,0,.135-.052s.042-.1.1-.156.1-.042.156-.083.083-.135.156-.219a1.254,1.254,0,0,1,.25-.156l.344-.292a1.116,1.116,0,0,0,.271-.271c.042-.042.042-.094.083-.135s.2-.115.292-.188.177-.146.323-.24.1-.135.2-.2.083,0,.1,0,.042-.083.083-.135a1.364,1.364,0,0,1,.24-.156.669.669,0,0,0,.135-.1,1.406,1.406,0,0,1,.271-.156.328.328,0,0,1,.156-.083.494.494,0,0,1,.1-.1c.042-.042.1-.063.135-.1a2,2,0,0,0,.3-.292s0-.125.052-.156a1.338,1.338,0,0,0,.24-.2c.177-.2.406-.24.49-.344s.042-.1.1-.135a1.93,1.93,0,0,0,.344-.219l.219-.156c.1-.063.156-.115.271-.188a3.459,3.459,0,0,1,.375-.271.869.869,0,0,1,.219-.167c.1-.083.177-.1.292-.188s.083-.125.219-.135.115-.135.3-.156a.1.1,0,0,0,.083-.1c0-.063.073-.042.1-.083a.143.143,0,0,0,.052-.083.227.227,0,0,0,.052-.083v-.208a.22.22,0,0,0-.052-.135h-.1c-.042,0,0-.094-.052-.135a.546.546,0,0,0-.1-.115c-.083,0-.135,0-.188-.083s-.063-.042-.115-.083a.724.724,0,0,1-.135-.052c-.042,0-.063-.063-.1-.083a.237.237,0,0,0-.1-.219c-.083,0-.125.063-.219.052H109.3a.4.4,0,0,0-.156,0,.223.223,0,0,1-.083.052.917.917,0,0,1-.156.052.1.1,0,0,0-.1.052.114.114,0,0,1-.083,0l-.375.135c-.125.063-.2.125-.323.2s-.083.031-.135.052l-.135.083c-.219.1-.323.177-.542.292s-.323.2-.532.323-.417.271-.667.427c-.083.073-.156.094-.25.167a7.742,7.742,0,0,1-.782.511c-.156.125-.24.208-.4.323a.787.787,0,0,0-.24.135,2.023,2.023,0,0,0-.3.219.417.417,0,0,1-.188.135c-.094.031-.083,0-.135.052a1.179,1.179,0,0,0-.1.135c-.042.063-.115.042-.167.083l-.24.188c0,.063-.073,0-.1.052a1.283,1.283,0,0,0-.354.271l-.292.219c-.146.1-.281.156-.344.271s-.1,0-.135.052a.315.315,0,0,1-.083.083,1.359,1.359,0,0,1-.156.1,1.78,1.78,0,0,0-.271.219,1.137,1.137,0,0,0-.3.24s-.073-.042-.1,0-.125.1-.219.188a.618.618,0,0,0-.188.135.629.629,0,0,0-.083.083c-.1.094-.2.1-.3.2s-.2.208-.344.323-.188.083-.3.156l-.188.167a2.009,2.009,0,0,1-.219.135c-.083.052-.271.219-.459.344-.063.063-.1.083-.156.135-.188.135-.313.3-.459.354-.031,0,0,.063-.052.083a.269.269,0,0,0-.135.083.446.446,0,0,1-.188.156,2.2,2.2,0,0,1-.24.2.385.385,0,0,0-.115.052c-.083.042-.115.125-.188.188s-.156.073-.219.156,0,.052,0,.083-.125,0-.156.052a1.631,1.631,0,0,1-.386.323c-.042,0-.042.042-.083.083s-.063,0-.1.052a2.257,2.257,0,0,1-.459.375,1.883,1.883,0,0,1-.344.3,1.781,1.781,0,0,1-.271.219.674.674,0,0,0-.156.1.491.491,0,0,1-.135.156c-.156.135-.271.177-.4.3a.562.562,0,0,1-.083.083c-.042.031-.063,0-.1.052a.73.73,0,0,0-.083.1c-.063.063-.1.083-.156.135a1.283,1.283,0,0,0-.354.271.629.629,0,0,1-.083.083c-.073.094-.156.094-.24.156a3.254,3.254,0,0,1-.375.344c-.156.1-.2.083-.271.2s-.042.094-.083.135a3.324,3.324,0,0,0-.594.479,6.67,6.67,0,0,0-.511.438c-.188.177-.2.177-.323.292s-.292.2-.459.323c-.094.115-.2.219-.3.323-.083.063-.156.083-.24.156s-.125.135-.219.219-.24.229-.4.375a3.3,3.3,0,0,1-.406.354.265.265,0,0,0-.1.083c-.052.042,0,.1-.1.156-.2.083-.167.094-.24.188s-.073,0-.083,0l-.167.219a3,3,0,0,1-.344.292c-.24.219-.365.323-.594.542l-.375.375L87,36.867c-.146.135-.229.219-.375.354a2.351,2.351,0,0,1-.271.24c-.1.083-.188.167-.3.271s-.219.208-.344.344l-.271.271c-.073.094-.125.135-.188.219a3.591,3.591,0,0,1-.292.271c-.031,0,0,.063,0,.1s-.083.042-.135.083a.709.709,0,0,1-.2.156c-.115.063,0,.063,0,.083s-.042,0-.083,0h0c-.052,0-.052.063-.083.1a.708.708,0,0,1-.24.219c-.094.031,0,.083-.052.1-.135.115-.229.229-.386.386s-.323.313-.511.511-.229.281-.4.459-.427.459-.573.594,0,.1-.083.135-.208.2-.344.323a3.416,3.416,0,0,0-.354.406,3.614,3.614,0,0,1-.271.344c-.1.125-.261.292-.406.49a1.533,1.533,0,0,0-.1.135,1.811,1.811,0,0,1-.156.135c-.125.125-.177.208-.292.323a1.989,1.989,0,0,0-.3.375c-.073.125-.052,0-.052,0a2.636,2.636,0,0,1-.323.438,1.116,1.116,0,0,0-.2.188,1.887,1.887,0,0,0-.188.219.835.835,0,0,1-.156.219h-.052c-.1.094-.1.188-.188.292s-.146.1-.219.188a2.023,2.023,0,0,0-.219.3c-.156.2-.261.313-.427.511s-.229.292-.386.459c-.271.344-.427.625-.667.886a1.445,1.445,0,0,0-.24.323c-.115.135-.146.229-.271.375a.547.547,0,0,0-.115.1,1.407,1.407,0,0,0-.156.271h-.1a.534.534,0,0,1-.1.219c-.073.156-.219.208-.24.386s-.135.115-.219.188a2.059,2.059,0,0,0-.24.4c-.094.156-.188.25-.292.406s-.2.25-.25.323a.666.666,0,0,1-.1.135,1.66,1.66,0,0,1-.156.3c-.115.125-.292.386-.386.459a1.576,1.576,0,0,0-.135.3c0,.042-.052.042-.083.083-.167.177-.354.6-.459.667h0a2.2,2.2,0,0,1-.219.323,1.277,1.277,0,0,0-.219.386v.083a2.041,2.041,0,0,1-.208.271,3.8,3.8,0,0,1-.188.354,3.579,3.579,0,0,1-.25.344,2.82,2.82,0,0,0-.219.386H72a.115.115,0,0,0,0,.083c-.042.135-.177.156-.188.292a.1.1,0,0,0,0,.1,2.262,2.262,0,0,0-.25.3v.156c0,.042-.042,0-.083,0s0,.052,0,.1-.073.073-.1.135a.178.178,0,0,1,0,.1.265.265,0,0,1-.083.1,2.294,2.294,0,0,1-.156.271s.031.083,0,.1a.68.68,0,0,0-.167.219.486.486,0,0,0-.052.1v.115a.629.629,0,0,1-.083.083.429.429,0,0,0-.1.219v.135a.227.227,0,0,1-.083.052c-.042.063,0,.1,0,.156a1.773,1.773,0,0,0-.25.459c-.063.115-.125.219-.156.271s0,.073,0,.115-.146.156-.156.292c0,0,.042.063,0,.083a.406.406,0,0,0-.156.24v.167c0,.063-.1.083-.052.135s0,.052,0,0l.083-.1c0-.031.063-.031.1-.052s.052,0,.052-.083.073,0,.083-.063,0-.031,0-.052.125,0,.2-.052.063-.1.135-.156h.052c.063-.042.063,0,.1-.135s.031,0,.052,0,.073-.125.1-.219h0s.042-.083.052-.052h.052c.115-.094.146-.24.271-.375a.227.227,0,0,1,.052-.083c.083-.1.073-.188.156-.271-.021-.021-.052-.042-.063-.063h.052v-.1c0-.031.063,0,.1,0h.1c.063,0,.063-.073.115-.1s.125,0,.219-.083l.083-.052.083-.052.083-.083h.052v-.083c0-.021.042,0,.052,0a.317.317,0,0,0,.083-.083c.042-.042,0-.125.063-.135s.042,0,0,0,.083-.156.083-.1V57c0-.01,0,0,.052,0a2.492,2.492,0,0,1,.135-.219l.083-.1a.718.718,0,0,1,.135-.115.68.68,0,0,1,.156-.1,2.715,2.715,0,0,0,.25-.135c.083-.063.083-.125.135-.188a.934.934,0,0,1,.156-.188c.135-.2.208-.271.354-.49a.057.057,0,0,0,.052-.052,2.5,2.5,0,0,0,.219-.354h.052c.021,0,0-.063,0-.1s.125,0,.156,0,0-.042,0-.052.063,0,.083,0a.358.358,0,0,0,.115-.219c.01-.1.042,0,.052,0s0-.042,0-.052.063-.042.1-.083,0-.063.052-.083a.284.284,0,0,0,.1-.083c.031-.031,0-.063.052-.083a.178.178,0,0,1,.1,0,.491.491,0,0,0,.156-.135c.052-.052.115-.188.219-.188h.052c.01,0,0-.063,0-.083s.063-.042.1-.052a.348.348,0,0,1,.1,0h.083c.01,0-.031.052-.052.083h-.052V54c0,.031-.083,0-.1.052s.031.052,0,.083a.834.834,0,0,0-.135.219.072.072,0,0,1,0,.052s-.063.083-.1.135h-.052c-.052.063-.1.115-.083.156s0,0,0,.052a.326.326,0,0,0-.1.052.951.951,0,0,1-.083.135c-.031.042-.135.125-.135.219s.063,0,.1,0h.1a.365.365,0,0,0,.052-.083.214.214,0,0,1,.115,0c.031,0,0,.115.052.115s.073-.125.135-.2a.374.374,0,0,0,.135-.219s.094,0,.1-.052a.207.207,0,0,0,0-.083c0-.021.094-.042.135-.083s0-.1.083-.167a.473.473,0,0,0,.135-.156c.052-.083.052,0,.083,0s0-.094,0-.1a.387.387,0,0,0,.24-.052c.052,0,.1-.146.188-.24l.167-.2a.558.558,0,0,1,.156-.156v-.1c0-.042.073-.052.1-.1a.78.78,0,0,1,.156-.188A.744.744,0,0,0,77.368,53c.115-.063.135-.167.25-.271a1.275,1.275,0,0,0,.188-.24c.042-.063.042-.083.083-.1a.573.573,0,0,0,.156-.135c.052-.063.042-.115.083-.167a2.1,2.1,0,0,0,.219-.219c.083-.1.052.042.083,0s0-.083.083-.135.052,0,.083,0a.326.326,0,0,0,.1-.052l.083-.083c.031-.042-.052-.125,0-.135s.125-.115.25-.188.063.031.083,0,.042,0,.052-.052v-.052c0-.031.042-.042.083-.083s.063,0,.083-.052,0-.063,0-.1l.052-.052c.073-.063.146-.042.188-.1s.031,0,.052-.052-.031-.052,0-.083.1,0,.167,0,.115-.063.219-.1,0-.042,0-.083.042-.042.083-.083l.188-.188c0-.031-.042-.063,0-.1s.063,0,.083,0,.083,0,.083-.063v-.083c0-.042.1,0,.1,0a2.913,2.913,0,0,0,.219-.271v-.083c0-.031.083,0,.135,0a1.331,1.331,0,0,1,.24-.3c.052-.042.115-.042.156-.1a.227.227,0,0,0,.052-.083.276.276,0,0,1,.063-.052l.052-.083a3.243,3.243,0,0,0,.24-.292c.052-.063.052-.125.1-.135s.135,0,.1,0,.135-.146.188-.344c.031-.042.073,0,.115,0s.031-.094.083-.135,0-.083.083-.1.063,0,.1,0-.031-.083,0-.115.052,0,.083,0,0-.135.083-.156.042,0,.052,0,.042-.073.083-.1.1-.073.135-.135,0-.063.031-.1.115,0,.156,0,0-.063,0-.1.094-.063.135-.188.063,0,.1,0,.042-.094.083-.156a.8.8,0,0,1,.188-.188c.073-.063.146-.073.167-.135a2.005,2.005,0,0,1,.188-.323.585.585,0,0,0,.188-.083c.063-.042,0,0,0-.052v-.135a.178.178,0,0,1,.1,0c.052,0,.125-.177.2-.3s.094,0,.135,0,.052-.1.1-.156a.39.39,0,0,1,.156-.135c.052-.042.042-.2.135-.271s.094,0,.135-.083.156-.125.219-.24a5.393,5.393,0,0,0,.344-.427c0-.031.073,0,.1,0s.042-.1.083-.167a.788.788,0,0,1,.25-.24c.063-.042.125-.042.156-.1s0-.115.052-.156.073,0,.1,0,.063-.1.1-.135.063,0,.083-.052.052-.073.083-.135a1.506,1.506,0,0,1,.344-.292l.219-.156Z" transform="translate(-66.581 -19.9)" fill-rule="evenodd" fill="url(#linear-gradient)"/>
  <path id="Pfad_7128" data-name="Pfad 7128" d="M239.617,123.96h.042a4.247,4.247,0,0,1,.292-.459,2.889,2.889,0,0,1,.1-.271.227.227,0,0,0,.083-.052c.094-.083.063-.188.135-.271s.073,0,.083-.052a1.66,1.66,0,0,1,.156-.3c.083-.115.135-.167.219-.271a.575.575,0,0,0,.1-.219c.031-.063.042,0,.052-.052a.5.5,0,0,1,.083-.167,2.863,2.863,0,0,1,.24-.344c.042-.042.073-.052.1-.1s0-.073,0-.115a4.041,4.041,0,0,0,.271-.323v-.083a3.157,3.157,0,0,0,.219-.344c.083-.1.156-.125.219-.219s.261-.386.438-.625l.219-.292c.136-.2.208-.323.344-.511.115-.146.229-.292.354-.427v-.083a5,5,0,0,0,.375-.542c.031-.063.083-.063.1-.1a.557.557,0,0,1,.115-.135c.073-.063,0-.042,0-.083s.042,0,.083-.052.063-.135.135-.188a.227.227,0,0,1,.083-.052.6.6,0,0,0,.135-.219c.1-.125.208-.25.3-.386a.67.67,0,0,1,.1-.135.75.75,0,0,1,.188-.219c.031,0,0-.073,0-.1a2.345,2.345,0,0,1,.219-.25.985.985,0,0,1,.1-.1,2.459,2.459,0,0,0,.271-.375h.083c.031,0,0-.083,0-.115s.063-.083.1-.135a.924.924,0,0,1,.135-.188h.083c.042-.052.094-.115.135-.156a1.822,1.822,0,0,1,.188-.3,1.533,1.533,0,0,1,.135-.1.523.523,0,0,0,.052-.135,2.22,2.22,0,0,1,.271-.271v-.052a.951.951,0,0,0,.25-.25c0-.031,0-.052.052-.083s.042,0,.052-.052a.211.211,0,0,1,.1-.135c.063-.042.052,0,.083-.052a1.143,1.143,0,0,1,.135-.219c.063-.083.125-.1.188-.2a3.4,3.4,0,0,1,.3-.375.947.947,0,0,1,.219-.188,1.174,1.174,0,0,1,.156-.219c.083-.1.156-.135.25-.24s.2-.281.344-.438l.1-.1v-.052c0-.021.135-.094.219-.188a3.337,3.337,0,0,1,.271-.292c.1-.1.115-.115.188-.2s.2-.208.323-.344,0-.115.083-.135h.052c.052,0,.042-.083.083-.135l.156-.167a.948.948,0,0,0,.188-.219h.052v-.052a.636.636,0,0,0,.219-.188l.083-.1a.833.833,0,0,1,.135-.135c.156-.156.229-.25.386-.406.271-.261.511-.521.667-.667a.135.135,0,0,1,.063-.1,3.57,3.57,0,0,0,.292-.323,1.179,1.179,0,0,0,.271-.24.948.948,0,0,0,.188-.219c.063-.042.115-.042.167-.1s0-.042,0-.052.063-.042.1-.083a2.14,2.14,0,0,1,.271-.271.591.591,0,0,1,.135-.083c.125-.125.125-.208.3-.323.063-.042.063-.1.1-.135s.115-.042.156-.1a1.422,1.422,0,0,1,.156-.219l.167-.188c.125-.1.2-.146.323-.25a1.569,1.569,0,0,1,.219-.24.9.9,0,0,0,.167-.1.833.833,0,0,1,.135-.135.608.608,0,0,1,.271-.188.273.273,0,0,1,.135-.063.144.144,0,0,1,.135.115c.01.063-.042.042-.052.052s-.052.052-.052.083v.083c0,.031-.042.063-.052.1s0,.042,0,.083-.052,0-.052,0v.083a.112.112,0,0,1-.052.1c-.052.042-.042.073-.083.135a.332.332,0,0,0-.1.1.058.058,0,0,0,0,.083c.042.042.063.063,0,.1s0,.063-.052.1a.466.466,0,0,0-.083.1c.021-.021.042-.031.052-.052.073-.083-.135.156-.135.3,0,.031-.073.042-.083.083a.349.349,0,0,0,0,.1c0,.042-.063.083-.1.135l-.1.135a1.813,1.813,0,0,1-.135.156,1.175,1.175,0,0,1-.083.25c0,.031-.042.042-.052.083-.083.135-.125.052-.1.219,0,.063-.1.031-.135.156s-.125.229-.156.323.052.031,0,.083l-.1.1a.608.608,0,0,0-.083.188c-.021.042,0,0,0,.1s-.24.2-.323.354a1.666,1.666,0,0,0-.052.219v.156c0,.042-.115.063-.156.135-.031.031-.052.073-.083.1a2.388,2.388,0,0,1-.1.24,1.319,1.319,0,0,1-.135.271l.115-.01a.057.057,0,0,0-.052.052.289.289,0,0,1-.115.219c-.115.1.052,0,.031.052a.477.477,0,0,1-.083.135,2.085,2.085,0,0,1-.1.219c-.083.1-.156.156-.24.271a2.147,2.147,0,0,0-.135.219c-.052.094,0,.083-.052.1s-.073,0-.083.1a.541.541,0,0,0,0,.135.115.115,0,0,1,0,.083c-.073.125-.125.177-.188.292a1.042,1.042,0,0,1-.188.271,1.173,1.173,0,0,1-.156.219,2.428,2.428,0,0,0-.271.4c-.042.063-.063.135-.083.156a.719.719,0,0,0-.188.25c0,.042,0,.094-.052.1a1.939,1.939,0,0,0-.219.292c-.062.083-.042.146-.1.219s-.094.042-.135.1a.965.965,0,0,1-.135.24.915.915,0,0,0-.1.1.487.487,0,0,0-.052.1c-.042.083-.063.135-.1.219s-.042.031-.052.052a.649.649,0,0,0-.156.219c0,.063,0,.1-.063.135a.284.284,0,0,0-.1.083c-.042.031,0,.167-.1.219s-.063,0-.083.052a.944.944,0,0,1-.156.344c-.063.083-.125.125-.188.219s-.042.073-.083.135l-.188.219a1.087,1.087,0,0,1-.1.188c0,.042-.073.042-.1.083s0,.115-.052.156,0,.1-.052.167l-.1.135a.222.222,0,0,0-.052.083c-.01.042,0,.094-.083.135s-.042,0-.052,0a1.672,1.672,0,0,1-.1.323h-.052a.666.666,0,0,1-.1.271.057.057,0,0,0-.052.052.383.383,0,0,1-.083.156.408.408,0,0,0-.1.083c-.031.042,0,.094-.052.156a.318.318,0,0,0-.083.083.716.716,0,0,1-.115.135c0,.052-.063.063-.1.1s0,.115-.052.156-.083.1-.135.156l-.052.083c-.042.063,0,.115-.083.167s-.042,0-.052,0a.458.458,0,0,1-.1.24h-.052c-.01,0,0,.063-.031.083s-.042.115-.1.135-.042,0-.083,0,0,.1-.052.167a1.267,1.267,0,0,0-.188.375.177.177,0,0,0,0,.1l-.083.135c-.042.073-.094.094-.135.167a1.8,1.8,0,0,1-.219.344.317.317,0,0,0-.083.083c-.042.042-.031.083-.083.135s-.083.063-.1.1,0,.094,0,.135v.1c0,.042-.042,0-.052.052s-.083.052-.083.1a.217.217,0,0,1,0,.083,1.009,1.009,0,0,0-.188.323c-.063.1-.177.1-.25.219v.156a.524.524,0,0,0-.052.135,1.529,1.529,0,0,1-.135.1,1.32,1.32,0,0,0-.156.323.1.1,0,0,0-.083.052c-.031.052-.083.177-.135.292s-.208.2-.188.271,0,0-.052,0-.042.125-.083.188-.063,0-.083.052.052.063,0,.083a.669.669,0,0,0-.1.135,1.775,1.775,0,0,0-.271.354c-.083.135-.052.25-.156.344l-.083.052c-.083.083,0,.2-.1.271s-.063,0-.083.052.042.063,0,.083h0c-.063.073,0,.1-.073.156s-.1.125-.156.219a2.2,2.2,0,0,0-.115.219,1.784,1.784,0,0,1-.135.24c-.031.031-.052.073-.083.1a2.8,2.8,0,0,0-.271.49c-.1.177-.146.292-.25.459l-.083.156a1.178,1.178,0,0,0-.1.135.409.409,0,0,0-.083.1v.083h-.052v.1c0,.021-.042.042-.052.052s-.083.208-.156.323-.125.135-.2.24a4.536,4.536,0,0,1-.292.459,1.06,1.06,0,0,0-.135.292c0,.042-.042,0-.052.052a1.032,1.032,0,0,1-.1.24c-.052.094-.052.083-.083.135s-.063.125-.1.219a.318.318,0,0,0-.083.083,3.123,3.123,0,0,0-.188.427c0,.042-.063.042-.1.083s-.042.292-.156.427a.227.227,0,0,0-.083.052.836.836,0,0,0-.135.2.342.342,0,0,1-.052.219h-.052a1.479,1.479,0,0,1-.083.188h-.052c-.052,0,0,.083-.052.1s-.063.031-.083.083,0,0,0,.052-.063.042-.052.083.042,0,0,.052-.042.135-.1.219-.063,0-.083.052-.073.073-.115.135l-.083.135v.135c0,.042-.052,0-.083,0a1.571,1.571,0,0,1-.156.292l-.323.542-.3.532c-.125.25-.2.4-.323.667s-.2.417-.3.625c0,.042-.063.042-.083.083s0,.1,0,.135c-.083.135-.177.313-.292.511l-.156.271c-.083.177-.135.334-.2.49H237.4c-.031,0,0,.083,0,.135a.524.524,0,0,1-.052.135c0,.042-.042.063-.083.115-.135.156-.125.333-.271.511l-.052.052c-.01.01,0,.063,0,.1s-.073.1-.083.115a3.849,3.849,0,0,1-.3.667c-.094.073-.135.25-.188.271s-.1.1-.156.188a5.283,5.283,0,0,1-.386.667c-.094.083-.135.042-.188.1s-.042.156-.1.188a.292.292,0,0,0-.1.25,1.209,1.209,0,0,0-.167.219,2.08,2.08,0,0,1-.1.219c-.052.083-.042.115-.1.135s-.083.042-.188.083-.042-.063-.083-.052c-.1.125-.063.2-.188.323a.323.323,0,0,0-.063.135c-.063.073-.042.146-.1.219s-.052,0-.083,0,0-.2.083-.292,0-.135,0-.219.083-.156.1-.25.052-.125,0-.135a.351.351,0,0,0-.271.083.467.467,0,0,0-.1.135,3.526,3.526,0,0,0-.156.386.658.658,0,0,1-.083.24c-.052.063-.125.063-.167.135s-.031.208-.135.3a.463.463,0,0,0-.083.083.669.669,0,0,0-.135.1v.156a1.139,1.139,0,0,0-.083.156c-.042.083-.042.177-.135.2s-.063,0-.115,0a.669.669,0,0,0-.135.1c-.125.125-.083.271-.188.427s-.063.1-.083.167,0,.115-.083.188-.052,0-.083.052a.3.3,0,0,1-.083.1c-.031.031-.125,0-.167.083s0,.063-.052.1a.461.461,0,0,1-.083.115c-.042.042-.052.125-.1.1s-.052-.052-.052-.1v-.115a.77.77,0,0,0,0-.219c0-.1.031-.125,0-.219a1.211,1.211,0,0,1,.083-.438c.042-.271.052-.344.1-.667a4.724,4.724,0,0,1,.135-.667v-.1a.471.471,0,0,1,.083-.188,1.178,1.178,0,0,0,0-.271.7.7,0,0,1,.052-.323.933.933,0,0,0,.083-.24v-.292a1.1,1.1,0,0,0,.052-.2,1.346,1.346,0,0,1,.083-.271v-.052c0-.042.063-.156.052-.1s0,0,0-.052.042-.042.052-.083a.588.588,0,0,0,0-.135c0-.052.052-.083.052-.156v-.052a1.344,1.344,0,0,1,.083-.292.888.888,0,0,1,.135-.323v-.083a.326.326,0,0,1,.052-.1,2.161,2.161,0,0,0,.1-.344.114.114,0,0,0,0-.083,4.055,4.055,0,0,1,.219-.532c.063-.219.094-.344.156-.542s.115-.459.219-.761c.083-.188.146-.292.24-.49.156-.417.24-.667.375-1.073a4.788,4.788,0,0,0,.271-.511.093.093,0,0,0,.083-.052c.021-.052.052-.188.052-.135v-.083l.156-.3c.115-.229.167-.365.271-.584l.49-1.115c.167-.365.25-.573.438-.917s.261-.521.427-.865.386-.74.49-.98v-.083c0-.042.052,0,.083,0a1.484,1.484,0,0,0,.156-.4c.063-.156.2-.323.3-.542a11.564,11.564,0,0,0,.667-1.219h.052a2.333,2.333,0,0,0,.271-.563c0-.042.083,0,.1-.052a.8.8,0,0,1,.1-.3.331.331,0,0,0,.1-.1c.063-.073.042-.156.1-.24l.083-.052a2.985,2.985,0,0,1,.271-.511h.052c.125-.167.208-.4.323-.584Z" transform="translate(-211.769 -95.862)" fill-rule="evenodd" fill="url(#linear-gradient-2)"/>
</svg>
