<svg id="la-liga" xmlns="http://www.w3.org/2000/svg" width="55.022" height="47.131" viewBox="0 0 55.022 47.131">
  <path id="Pfad_7098" data-name="Pfad 7098" d="M212.789,138.563a4.24,4.24,0,0,1,2.3-1.663,3.077,3.077,0,0,0-.395.395,2.7,2.7,0,0,1,1.471.2c.048.431.1.861.144,1.28a.109.109,0,0,0,.048-.1c.048-.395.084-.766.144-1.184a2.818,2.818,0,0,1,1.471-.2,3.172,3.172,0,0,0-.407-.395,4.275,4.275,0,0,1,2.249,1.627,3.5,3.5,0,0,0-.478-.227,2.946,2.946,0,0,1,.287,1.435c-.407.167-.766.371-1.2.538.06.036.132,0,.2,0,.359-.084.766-.144,1.089-.227a2.741,2.741,0,0,1,.646,1.352,2.108,2.108,0,0,0,.227-.466,1.951,1.951,0,0,1,0,.646,4.282,4.282,0,0,1-.861,1.986c0-.167.06-.335.072-.5a3,3,0,0,1-1.3.694c-.311-.323-.6-.67-.921-.993.179.419.443.766.646,1.2a3,3,0,0,1-1.089,1.029l.514.084a4.35,4.35,0,0,1-2.7,0,3.555,3.555,0,0,1,.514-.1,2.961,2.961,0,0,1-1.077-1.029c.191-.359.395-.706.6-1.065a.2.2,0,0,0,0-.12c-.287.335-.6.658-.9.981a2.855,2.855,0,0,1-.969-.443c-.12-.072-.215-.179-.323-.251a3.551,3.551,0,0,0,.072.514,4.441,4.441,0,0,1-.861-2.632c.1.155.156.347.263.5a2.866,2.866,0,0,1,.658-1.352c.431.084.861.2,1.3.251-.395-.2-.766-.371-1.2-.562a.382.382,0,0,1-.036-.227,2.9,2.9,0,0,1,.287-1.22,2.509,2.509,0,0,0-.5.263m1.6,1.782c.239.766.49,1.471.718,2.213h2.344c.227-.766.478-1.471.718-2.213l-1.89-1.364Z" transform="translate(-189.032 -126.873)" fill="#fff"/>
  <path id="Pfad_7099" data-name="Pfad 7099" d="M175.09,53.1a.572.572,0,0,1,.347,0,1.583,1.583,0,0,1,.1.395c.323,1.711.634,3.433.957,5.155a.3.3,0,0,1,0,.2.542.542,0,0,1-.263.1,6.374,6.374,0,0,0-4.282,3.062.173.173,0,0,1-.227.108c-.012,0-.024-.012-.048-.024l-4.629-2.691a1.281,1.281,0,0,1-.263-.179c-.1-.144.06-.275.12-.395A12.36,12.36,0,0,1,174,53.341c.359-.108.766-.191,1.1-.263Z" transform="translate(-149.191 -53.075)" fill="#931f80"/>
  <path id="Pfad_7100" data-name="Pfad 7100" d="M250.82,64.416a12.39,12.39,0,0,1,8.768,2.895c.108.084.3.215.179.371-1.22,1.423-2.464,2.835-3.684,4.258a.187.187,0,0,1-.263.024l-.024-.024a6.326,6.326,0,0,0-5.131-1.531c-.1,0-.239,0-.251-.132-.275-1.83-.538-3.672-.813-5.514,0-.084,0-.2.1-.227C250.066,64.475,250.437,64.44,250.82,64.416Z" transform="translate(-222.134 -63.037)" fill="#e10f1a"/>
  <path id="Pfad_7101" data-name="Pfad 7101" d="M138.325,104.815c.1-.06.2,0,.287.048l4.868,2.6c.156.06.108.227.036.323a6.34,6.34,0,0,0-.311,5.287.191.191,0,0,1-.048.263.091.091,0,0,1-.048.024l-5.191,2.01c-.084.036-.215,0-.239-.072a12.391,12.391,0,0,1,.227-9.605,4.654,4.654,0,0,1,.455-.873h-.036Z" transform="translate(-122.845 -98.604)" fill="#04519b"/>
  <path id="Pfad_7102" data-name="Pfad 7102" d="M302.336,107.356a.187.187,0,0,1,.227.048,12.038,12.038,0,0,1,2.7,3.72,12.424,12.424,0,0,1,1.16,5.945c0,.12-.144.167-.239.155l-5.55-.275a.173.173,0,0,1-.156-.227,6.352,6.352,0,0,0-2.021-4.976.175.175,0,0,1-.036-.251l.036-.036,3.732-3.947a1.91,1.91,0,0,1,.155-.156Z" transform="translate(-265.086 -100.846)" fill="#ef8707"/>
  <path id="Pfad_7103" data-name="Pfad 7103" d="M212.877,132.117a4.662,4.662,0,1,1-3.4,2.057,4.668,4.668,0,0,1,3.4-2.057m-3.05,2.213a2.015,2.015,0,0,1,.5-.263,3.09,3.09,0,0,0-.287,1.22.368.368,0,0,0,.036.227c.395.191.766.347,1.2.562-.443-.048-.873-.167-1.3-.251a2.867,2.867,0,0,0-.658,1.352c-.108-.156-.155-.335-.263-.5a4.447,4.447,0,0,0,.921,2.632c0-.167-.06-.335-.072-.514.12.072.215.179.323.251a2.854,2.854,0,0,0,.969.443c.287-.323.61-.646.9-.981a.2.2,0,0,1,0,.12c-.2.359-.407.706-.6,1.065a2.961,2.961,0,0,0,1.077,1.029c-.167.024-.347.06-.514.1a4.35,4.35,0,0,0,2.7,0l-.514-.084a2.99,2.99,0,0,0,1.089-1.029c-.2-.407-.467-.766-.646-1.2.323.323.61.67.921.993a3.067,3.067,0,0,0,1.3-.694,3.629,3.629,0,0,1-.072.5,4.463,4.463,0,0,0,.8-1.938,1.951,1.951,0,0,0,0-.646,2.108,2.108,0,0,1-.227.466,2.741,2.741,0,0,0-.646-1.352c-.371.084-.766.144-1.089.227-.072,0-.144.036-.2,0,.407-.167.766-.371,1.2-.538a2.726,2.726,0,0,0-.263-1.447,3.5,3.5,0,0,1,.478.227,4.275,4.275,0,0,0-2.249-1.627,3.172,3.172,0,0,1,.407.395,2.7,2.7,0,0,0-1.471.2c-.06.395-.1.766-.144,1.184,0,.036-.012.084-.048.1-.048-.431-.1-.861-.144-1.28a2.818,2.818,0,0,0-1.471-.2,3.076,3.076,0,0,1,.395-.395,4.24,4.24,0,0,0-2.3,1.663Z" transform="translate(-186.129 -122.64)" fill="#1f1f1d"/>
  <path id="Pfad_7104" data-name="Pfad 7104" d="M232.1,155.864l1.89-1.364,1.89,1.364c-.239.766-.49,1.471-.718,2.213h-2.344C232.59,157.335,232.351,156.605,232.1,155.864Z" transform="translate(-206.727 -142.368)" fill="#1f1f1d"/>
  <path id="Pfad_7105" data-name="Pfad 7105" d="M139.584,187.034c.144-.048.215.108.251.2a6.386,6.386,0,0,0,3.887,3.493.455.455,0,0,1,.2.1c.06.072,0,.179,0,.251-.55,1.746-1.089,3.5-1.639,5.239a.179.179,0,0,1-.2.155c-.012,0-.036-.012-.048-.012a12.31,12.31,0,0,1-7.715-6.938.174.174,0,0,1,.06-.239c.012-.012.024-.012.036-.024,1.734-.754,3.457-1.519,5.167-2.225Z" transform="translate(-120.622 -171.003)" fill="#208ccd"/>
  <path id="Pfad_7106" data-name="Pfad 7106" d="M281.031,193.168a.369.369,0,0,1,.227,0l5.49.431a.169.169,0,0,1,.156.215,12.343,12.343,0,0,1-5.024,9.055.187.187,0,0,1-.263.024l-.024-.024-3.289-4.486a.188.188,0,0,1,0-.263.261.261,0,0,1,.06-.036,6.379,6.379,0,0,0,2.6-4.581.4.4,0,0,1,.072-.287Z" transform="translate(-247.357 -176.395)" fill="#fdeb20"/>
  <path id="Pfad_7107" data-name="Pfad 7107" d="M211.039,226.625a.19.19,0,0,1,.263.036.062.062,0,0,1,.024.048l3.062,4.581c.072.1.12.227,0,.3a12.318,12.318,0,0,1-10.263,1.615c-.12,0-.144-.156-.1-.239.478-1.77.969-3.541,1.459-5.311a.2.2,0,0,1,.12-.179.869.869,0,0,1,.3.048A6.4,6.4,0,0,0,211.039,226.625Z" transform="translate(-181.995 -205.833)" fill="#009641"/>
  <path id="Pfad_7108" data-name="Pfad 7108" d="M254.386,304.071a.906.906,0,1,1-.61.778A.886.886,0,0,1,254.386,304.071Z" transform="translate(-225.808 -274.009)" fill="#010101"/>
  <path id="Pfad_7109" data-name="Pfad 7109" d="M135,318.156V311.9h1.627v4.832h1.962v1.435C137.392,318.156,136.2,318.168,135,318.156Z" transform="translate(-121.242 -280.941)" fill="#010101"/>
  <path id="Pfad_7110" data-name="Pfad 7110" d="M219.3,311.9h1.627v4.82h1.962v1.435H219.3Z" transform="translate(-195.459 -280.941)" fill="#010101"/>
  <path id="Pfad_7111" data-name="Pfad 7111" d="M168.9,321.5a2.035,2.035,0,0,1,1.376.2,4.543,4.543,0,0,1,.478.359v-.5h1.531v5.012h-1.591v-.443a2.767,2.767,0,0,1-.945.5,2.332,2.332,0,0,1-2.093-.5,2.508,2.508,0,0,1-.766-1.591,2.9,2.9,0,0,1,.407-1.938,2.361,2.361,0,0,1,1.567-1.1m.335,1.435a1.13,1.13,0,0,0-.766.921,1.281,1.281,0,0,0,.6,1.34,1.225,1.225,0,0,0,1.435-.275,1.289,1.289,0,0,0-.12-1.782,1.214,1.214,0,0,0-1.136-.2Z" transform="translate(-149.29 -289.352)" fill="#010101"/>
  <path id="Pfad_7112" data-name="Pfad 7112" d="M273.963,321.884a2.1,2.1,0,0,1,1.926-.335,1.973,1.973,0,0,1,.837.55v-.55h1.447v3.684a4.394,4.394,0,0,1-.155,1.675,2.236,2.236,0,0,1-1.447,1.28,3.217,3.217,0,0,1-2.356-.191,1.884,1.884,0,0,1-1.041-1.435h1.71a.726.726,0,0,0,.49.383,1.443,1.443,0,0,0,.921-.12.676.676,0,0,0,.371-.55v-.443a2.286,2.286,0,0,1-1.328.562,2.089,2.089,0,0,1-1.5-.5,2.542,2.542,0,0,1-.766-1.938,2.607,2.607,0,0,1,.909-2.057m1.376.9a.961.961,0,0,0-.646.49,1.3,1.3,0,0,0,.395,1.734,1.137,1.137,0,0,0,1.328-.275,1.293,1.293,0,0,0,.084-1.531,1.113,1.113,0,0,0-1.172-.431Z" transform="translate(-242.801 -289.345)" fill="#010101"/>
  <path id="Pfad_7113" data-name="Pfad 7113" d="M322.355,321.9a2.267,2.267,0,0,1,1.71-.335,2.076,2.076,0,0,1,.981.562v-.514h1.531v5.012h-1.531v-.478a2.291,2.291,0,0,1-3.17-.084,2.855,2.855,0,0,1-.646-2.057,2.733,2.733,0,0,1,1.148-2.105m1.184,1.089a1.1,1.1,0,0,0-.73.718,1.3,1.3,0,0,0,.574,1.531,1.222,1.222,0,0,0,1.483-.371,1.267,1.267,0,0,0-.179-1.675,1.184,1.184,0,0,0-1.148-.227Z" transform="translate(-285.189 -289.411)" fill="#010101"/>
  <path id="Pfad_7114" data-name="Pfad 7114" d="M254.9,322.3h1.531v5.012H254.9Z" transform="translate(-226.8 -290.097)" fill="#010101"/>
  <path id="Pfad_7115" data-name="Pfad 7115" d="M25.02,368.3a2.18,2.18,0,0,1,.108-2.3,4.175,4.175,0,0,0,.538,1.172l1.328,2.3a2.678,2.678,0,0,1,.275,1,4.874,4.874,0,0,1,2.189,1.1,1.9,1.9,0,0,1,.67,1.471,1.972,1.972,0,0,1-.706,1.3,4.737,4.737,0,0,1-1.842.981,9.5,9.5,0,0,1-2.081.371,4.086,4.086,0,0,0-.766,0,8.021,8.021,0,0,1-3.062-.718,3.5,3.5,0,0,1-1.388-1.112,1.678,1.678,0,0,1-.263-1.328,2.559,2.559,0,0,1,1.22-1.447,5.649,5.649,0,0,1,1.615-.622,2.211,2.211,0,0,0,.311,1.2c.526.921,1.065,1.854,1.6,2.763a3.4,3.4,0,0,1,.239.61,2.23,2.23,0,0,0,.048-2.3l-1.088-1.9a4.175,4.175,0,0,1-.347-.694,2.243,2.243,0,0,1,.239-1.95,2.468,2.468,0,0,0,.239.646l1.9,3.3a1.863,1.863,0,0,1,.251.646,2.136,2.136,0,0,0,.1-2.213c-.443-.754-.885-1.519-1.328-2.285Z" transform="translate(-19.982 -328.569)" fill="#e3131b"/>
  <path id="Pfad_7116" data-name="Pfad 7116" d="M121.569,388.128a2.778,2.778,0,0,1,1.651-.395,5.263,5.263,0,0,1,1.71.263,2.752,2.752,0,0,1-.191.981,4.434,4.434,0,0,0-1.3-.263,1.785,1.785,0,0,0-1.16.215.764.764,0,0,0-.156,1.029,1.777,1.777,0,0,0,.766.562,6.587,6.587,0,0,1,1.83.981,1.765,1.765,0,0,1,.024,2.512.777.777,0,0,1-.108.1,2.741,2.741,0,0,1-1.663.514,5.462,5.462,0,0,1-1.962-.287c-.048,0-.132,0-.144-.1a3.177,3.177,0,0,1,.144-.945,4.4,4.4,0,0,0,1.962.359,1.48,1.48,0,0,0,.921-.287.759.759,0,0,0,.036-1.077l-.036-.036a2.907,2.907,0,0,0-.861-.538,5.3,5.3,0,0,1-1.734-.981,1.861,1.861,0,0,1-.395-1.663,1.535,1.535,0,0,1,.646-.945Z" transform="translate(-108.78 -347.695)" fill="#e3131b"/>
  <path id="Pfad_7117" data-name="Pfad 7117" d="M253.6,388.356a5.2,5.2,0,0,1,1.053-.156v1.806h1.639a5.861,5.861,0,0,1-.1.909h-1.531v2.416a.722.722,0,0,0,.407.694,1.939,1.939,0,0,0,1.22-.072,5.434,5.434,0,0,1-.12.885,2.686,2.686,0,0,1-1.34.132,1.349,1.349,0,0,1-.993-.6,2.179,2.179,0,0,1-.239-1.256v-4.761Z" transform="translate(-225.647 -348.114)" fill="#e3131b"/>
  <path id="Pfad_7118" data-name="Pfad 7118" d="M371.445,388.432a3.369,3.369,0,0,1,1.041-.144v6.686h-.981a2.377,2.377,0,0,0-.048-.586,1.421,1.421,0,0,1-.861.646,2.05,2.05,0,0,1-1.83-.359,2.353,2.353,0,0,1-.766-1.639,3.568,3.568,0,0,1,.2-1.7,2.068,2.068,0,0,1,1.1-1.124,3.889,3.889,0,0,1,2.153-.215v-1.531m-1.615,2.56a1.43,1.43,0,0,0-.766,1.089,2.675,2.675,0,0,0,.144,1.435,1.074,1.074,0,0,0,.706.622,1.688,1.688,0,0,0,1.447-.287,6.481,6.481,0,0,0,0-.682v-2.3a2.585,2.585,0,0,0-1.591.072Z" transform="translate(-326.348 -348.191)" fill="#e3131b"/>
  <path id="Pfad_7119" data-name="Pfad 7119" d="M163.406,402.469a2.547,2.547,0,0,1,1.722-.766,5.947,5.947,0,0,1,2.105.239v4.773h-.969a2.1,2.1,0,0,0-.048-.538,1.593,1.593,0,0,1-.766.574,2.023,2.023,0,0,1-2.081-.562,2.869,2.869,0,0,1-.6-1.9,2.687,2.687,0,0,1,.622-1.878m1.22.371a1.308,1.308,0,0,0-.67.837,2.727,2.727,0,0,0,0,1.388,1.256,1.256,0,0,0,.67.861,1.6,1.6,0,0,0,1.531-.179.122.122,0,0,0,.072-.144V402.7a2.677,2.677,0,0,0-1.531.12Z" transform="translate(-145.688 -359.991)" fill="#e3131b"/>
  <path id="Pfad_7120" data-name="Pfad 7120" d="M210.454,402.274a5.856,5.856,0,0,1,2.141,0,1.673,1.673,0,0,1,.981.538,1.756,1.756,0,0,1,.347,1.136v3.277h-1.065v-3.062a1.089,1.089,0,0,0-.191-.766.872.872,0,0,0-.5-.275,4.067,4.067,0,0,0-1.423,0v4.055H209.7v-4.761a5.449,5.449,0,0,1,.766-.167Z" transform="translate(-187.007 -360.417)" fill="#e3131b"/>
  <path id="Pfad_7121" data-name="Pfad 7121" d="M279.274,402.911a2.552,2.552,0,0,1,1.914-.766,5.574,5.574,0,0,1,1.986.263v4.773h-.981a2.051,2.051,0,0,0-.048-.538,1.593,1.593,0,0,1-.766.574,2.107,2.107,0,0,1-1.974-.431,2.513,2.513,0,0,1-.694-1.579,3.052,3.052,0,0,1,.562-2.3m1.232.323a1.4,1.4,0,0,0-.682.969,2.621,2.621,0,0,0,.108,1.483,1.166,1.166,0,0,0,.8.694,1.687,1.687,0,0,0,1.388-.263v-2.978a2.508,2.508,0,0,0-1.591.132Z" transform="translate(-247.729 -360.385)" fill="#e3131b"/>
  <path id="Pfad_7122" data-name="Pfad 7122" d="M325.7,402.359a6.866,6.866,0,0,1,2.7-.215,1.8,1.8,0,0,1,1.148.55,1.691,1.691,0,0,1,.371,1.16v3.277H328.87v-2.871a1.7,1.7,0,0,0-.155-.873,1.006,1.006,0,0,0-.706-.371,4.8,4.8,0,0,0-1.244.048v4.055h-1.053c-.012-1.579-.012-3.17-.012-4.761Z" transform="translate(-289.131 -360.347)" fill="#e3131b"/>
  <path id="Pfad_7123" data-name="Pfad 7123" d="M414.093,402.108a2.9,2.9,0,0,1,1.531.048,1.717,1.717,0,0,1,1.112.981,3.589,3.589,0,0,1,.156,1.878h-3.349a1.5,1.5,0,0,0,.478.921,1.776,1.776,0,0,0,1.22.311,4.526,4.526,0,0,0,1.531-.347,5.215,5.215,0,0,1-.132.849c0,.048,0,.12-.084.144a3.747,3.747,0,0,1-1.531.287,2.927,2.927,0,0,1-1.352-.287,1.935,1.935,0,0,1-.873-.849,3.24,3.24,0,0,1-.323-1.531,2.944,2.944,0,0,1,.455-1.615,1.88,1.88,0,0,1,1.16-.766m-.179,1.112a1.493,1.493,0,0,0-.371.921H415.9a1.728,1.728,0,0,0-.155-.694.974.974,0,0,0-.718-.514,1.285,1.285,0,0,0-1.112.239Z" transform="translate(-365.527 -360.287)" fill="#e3131b"/>
  <path id="Pfad_7124" data-name="Pfad 7124" d="M457.3,402.189a6.871,6.871,0,0,1,2.7-.227,2.453,2.453,0,0,1-.084.885,6.557,6.557,0,0,0-1.531,0v4.079h-1.065v-4.773Z" transform="translate(-404.99 -360.189)" fill="#e3131b"/>
</svg>
