<svg xmlns="http://www.w3.org/2000/svg" width="32" height="32" viewBox="0 0 32 32">
  <path id="sports-soccer" d="M16,32A16,16,0,1,1,32,16h0A16,16,0,0,1,16,32ZM7.363,18.326a1.366,1.366,0,0,0-.065.421,1.39,1.39,0,0,0,.175.677l0-.007,2.206,3.545a1.129,1.129,0,0,0,.93.489h.03l5.089-.36a1.129,1.129,0,0,0,.864-.6l0-.006,1.89-4.279a1.125,1.125,0,0,0,.073-.4,1.14,1.14,0,0,0-.206-.656l0,0-3.229-4.2a1.184,1.184,0,0,0-.895-.407q-.05,0-.1,0h0l-4.162.545a1.147,1.147,0,0,0-.832.65l0,.007ZM16,12.269l3.248,4.213a1.283,1.283,0,0,0,.974.447h.021l4.159-.273a1.069,1.069,0,0,0,.843-.61l0-.007,1.579-3.993a1.259,1.259,0,0,0,.067-.41,1.278,1.278,0,0,0-.2-.686l0,.005L23.969,7.047a1.276,1.276,0,0,0-.974-.5h0l-4.674.115a1.024,1.024,0,0,0-.862.588l0,.006-1.6,3.943a1.166,1.166,0,0,0-.066.392,1.184,1.184,0,0,0,.211.676l0,0Zm-13.516,6.2a.693.693,0,0,0,.787.471h0l2.294-.45a1.241,1.241,0,0,0,.815-.685l0-.008,1.852-4.789a1.766,1.766,0,0,0,.086-.55,1.8,1.8,0,0,0-.106-.611l0,.013-1.317-3.2a.852.852,0,0,0-.769-.486q-.042,0-.083,0h0L4.382,8.4a1.166,1.166,0,0,0-.837.645l0,.007L1.47,14.23c-.025.2-.046.409-.06.616Zm17.6,8.181L17.205,24.5a1.892,1.892,0,0,0-1.069-.328H16.1l-5.329.368a.976.976,0,0,0-.8.623l0,.007-.515,1.636a1.118,1.118,0,0,0-.036.285,1.141,1.141,0,0,0,.28.75h0l2.1,2.182a14.425,14.425,0,0,0,4.215.615,14.817,14.817,0,0,0,2.882-.282l-.094.016,1.486-2.8a.737.737,0,0,0,.078-.333.746.746,0,0,0-.279-.582h0Zm2.411-.055a3.348,3.348,0,0,0-.774.906l-.008.016-1.3,2.438a14.764,14.764,0,0,0,7.917-6.032l.035-.057-1.293-.172c-.041,0-.089-.006-.138-.006a1.721,1.721,0,0,0-.975.3l.006,0Zm6.12-14.437a.79.79,0,0,0-.084,0,.818.818,0,0,0-.751.493l0,.005L26.1,16.878a2.406,2.406,0,0,0-.133.8A2.471,2.471,0,0,0,26,18.07l0-.014.791,3.886a.93.93,0,0,0,.731.686h.006l1.432.191a14.5,14.5,0,0,0,1.684-6.829,14.715,14.715,0,0,0-.474-3.715l.023.1ZM23.6,4.827l.325-1.148a14.43,14.43,0,0,0-7.885-2.318H16a14.863,14.863,0,0,0-2.7.246l.091-.014L12.97,2.768a.692.692,0,0,0-.037.227.706.706,0,0,0,.377.625l0,0,3.4,1.685a2.905,2.905,0,0,0,1.171.259h0l4.92-.115a.891.891,0,0,0,.784-.6l0-.006ZM4.233,7.281,4.846,7.2l1.838-.24A2.816,2.816,0,0,0,7.8,6.509l-.01.006,3.09-2.269a2.4,2.4,0,0,0,.7-.931L11.59,3.3l.515-1.421A14.727,14.727,0,0,0,4.26,7.246l-.028.039ZM6.861,27.555a7.464,7.464,0,0,0,2.289,1.563l.048.019-.611-.75a2.221,2.221,0,0,0-.972-.631l-.016,0Z"/>
</svg>
