<svg id="Komponente_10_1" data-name="Komponente 10 – 1" xmlns="http://www.w3.org/2000/svg" width="20.034" height="20.034" viewBox="0 0 20.034 20.034">
  <path id="Facebook_1_" d="M-1120.884-23.951a1.063,1.063,0,0,1-1.067,1.067h-5.1v-7.824h2.608l.356-3.082h-2.964v-1.9c0-.83.237-1.423,1.541-1.423h1.66v-2.727c-.237,0-1.185-.119-2.371-.119-2.371,0-3.912,1.423-3.912,4.031v2.252h-2.608v3.082h2.608v7.824h-9.6a1.063,1.063,0,0,1-1.067-1.067v-17.9a1.063,1.063,0,0,1,1.067-1.067h17.9a1.062,1.062,0,0,1,1.067,1.067v17.782" transform="translate(1140.8 42.8)" fill="#fff"/>
</svg>
