<svg id="Komponente_9_1" data-name="Komponente 9 – 1" xmlns="http://www.w3.org/2000/svg" width="20.574" height="20.57" viewBox="0 0 20.574 20.57">
  <g id="Gruppe_3337" data-name="Gruppe 3337">
    <path id="Pfad_2532" data-name="Pfad 2532" d="M10.283,1.853c2.747,0,3.07.012,4.156.061a5.612,5.612,0,0,1,1.91.355,3.191,3.191,0,0,1,1.184.767A3.142,3.142,0,0,1,18.3,4.221a5.717,5.717,0,0,1,.355,1.91c.049,1.086.061,1.408.061,4.156s-.012,3.07-.061,4.156a5.612,5.612,0,0,1-.355,1.91,3.191,3.191,0,0,1-.767,1.184,3.142,3.142,0,0,1-1.184.767,5.717,5.717,0,0,1-1.91.355c-1.086.049-1.408.061-4.156.061s-3.07-.012-4.156-.061a5.612,5.612,0,0,1-1.91-.355,3.192,3.192,0,0,1-1.184-.767,3.142,3.142,0,0,1-.767-1.184,5.717,5.717,0,0,1-.355-1.91c-.049-1.086-.061-1.408-.061-4.156s.012-3.07.061-4.156a5.612,5.612,0,0,1,.355-1.91,3.191,3.191,0,0,1,.767-1.184A3.142,3.142,0,0,1,4.217,2.27a5.717,5.717,0,0,1,1.91-.355c1.086-.053,1.412-.061,4.156-.061m0-1.853C7.491,0,7.14.012,6.041.061A7.537,7.537,0,0,0,3.547.539,5.012,5.012,0,0,0,1.727,1.727,5.1,5.1,0,0,0,.539,3.547a7.542,7.542,0,0,0-.478,2.5C.012,7.14,0,7.491,0,10.283s.012,3.143.061,4.241a7.587,7.587,0,0,0,.478,2.5,5.012,5.012,0,0,0,1.188,1.821,5.1,5.1,0,0,0,1.821,1.188,7.542,7.542,0,0,0,2.5.478c1.1.049,1.445.061,4.241.061s3.143-.012,4.241-.061a7.587,7.587,0,0,0,2.5-.478,5.012,5.012,0,0,0,1.821-1.188,5.1,5.1,0,0,0,1.188-1.821,7.542,7.542,0,0,0,.478-2.5c.049-1.1.061-1.445.061-4.241s-.012-3.143-.061-4.241a7.587,7.587,0,0,0-.478-2.5,5.012,5.012,0,0,0-1.188-1.821A5.1,5.1,0,0,0,17.026.535a7.542,7.542,0,0,0-2.5-.478C13.426.012,13.075,0,10.283,0Z" transform="translate(0 0)" fill="#fff"/>
    <path id="Pfad_2533" data-name="Pfad 2533" d="M127.782,122.6a5.282,5.282,0,1,0,5.282,5.282A5.283,5.283,0,0,0,127.782,122.6Zm0,8.707a3.429,3.429,0,1,1,3.429-3.429A3.429,3.429,0,0,1,127.782,131.307Z" transform="translate(-117.499 -117.595)" fill="#fff"/>
    <circle id="Ellipse_31" data-name="Ellipse 31" cx="1.233" cy="1.233" r="1.233" transform="translate(14.54 3.56)" fill="#fff"/>
  </g>
</svg>
