<svg xmlns="http://www.w3.org/2000/svg" width="20.912" height="21.148" viewBox="0 0 20.912 21.148">
  <g id="Komponente_8_1" data-name="Komponente 8 – 1" transform="translate(0.5 0.5)">
    <path id="Ausschluss_1" data-name="Ausschluss 1" d="M17.9,20.148H2.006A2.012,2.012,0,0,1,0,18.135V2.016A2.013,2.013,0,0,1,2.006,0H17.9a2.015,2.015,0,0,1,2.01,2.016V18.135A2.014,2.014,0,0,1,17.9,20.148ZM12.133,9.3c.889,0,1.359.645,1.359,1.866v4.777h2.677V10.849c0-2.328-1.152-3.718-3.085-3.718a3.122,3.122,0,0,0-2.66,1.39h-.053l-.123-1.2H7.921c.034.747.07,1.659.07,2.75v5.868h2.681v-4.97a1.874,1.874,0,0,1,.089-.669A1.464,1.464,0,0,1,12.133,9.3ZM3.711,7.324v8.618h2.68V7.324ZM5.067,3.587a1.342,1.342,0,1,0-.036,2.68,1.343,1.343,0,1,0,.036-2.68Z" fill="#fff" stroke="rgba(0,0,0,0)" stroke-width="1"/>
  </g>
</svg>
