<svg xmlns="http://www.w3.org/2000/svg" width="18.067" height="20.57" viewBox="0 0 18.067 20.57">
  <path id="social-tiktok" d="M80.361,6.059V8.5a8.487,8.487,0,0,1-3.318-.669,8.7,8.7,0,0,1-1.888-1.1l.014,7.5A6.282,6.282,0,0,1,73.281,18.7,6.462,6.462,0,0,1,69.7,20.5a6.29,6.29,0,0,1-.965.07,6.452,6.452,0,0,1-3.945-1.331,6.14,6.14,0,0,1-.606-.528,6.3,6.3,0,0,1-.282-8.7,6.422,6.422,0,0,1,4.84-2.163,6.29,6.29,0,0,1,.965.07v3.41a3.039,3.039,0,0,0-2.515,5.495,3.029,3.029,0,0,0,1.388.43,3.142,3.142,0,0,0,1.127-.148,3.041,3.041,0,0,0,2.085-2.881L71.8,9.2V0h3.36a4.945,4.945,0,0,0,.1.972A5.161,5.161,0,0,0,77.226,4.1a5.206,5.206,0,0,0,3.128,1.05h.007v.909Z" transform="translate(-62.294 -0.001)" fill="#fff"/>
</svg>
