<svg id="Komponente_7_1" data-name="Komponente 7 – 1" xmlns="http://www.w3.org/2000/svg" xmlns:xlink="http://www.w3.org/1999/xlink" width="25.232" height="20.57" viewBox="0 0 25.232 20.57">
  <defs>
    <clipPath id="clip-path">
      <rect id="Rechteck_711" data-name="Rechteck 711" width="25.232" height="20.57" fill="#fff"/>
    </clipPath>
  </defs>
  <g id="Gruppe_6114" data-name="Gruppe 6114" clip-path="url(#clip-path)">
    <path id="Pfad_6451" data-name="Pfad 6451" d="M.967,7.251a5.227,5.227,0,0,0,2.3.617A5.2,5.2,0,0,1,1.032,4.19,5.051,5.051,0,0,1,1.7.96,14.776,14.776,0,0,0,12.35,6.377c-.018-.523-.062-1.016-.048-1.506A5.181,5.181,0,0,1,21.121,1.5a.413.413,0,0,0,.316.087A9.843,9.843,0,0,0,24.294.521c.064-.036.13-.066.242-.123A5.356,5.356,0,0,1,22.4,3.2a9.71,9.71,0,0,0,2.772-.733l.055.061c-.417.489-.814,1-1.259,1.46-.353.366-.77.669-1.146,1.015a.5.5,0,0,0-.158.322A14.926,14.926,0,0,1,16.2,18.1a13.357,13.357,0,0,1-6.177,2.331,15.244,15.244,0,0,1-6.263-.447A14.345,14.345,0,0,1,.1,18.344a1.275,1.275,0,0,1-.1-.089,10.584,10.584,0,0,0,7.6-2.15,5.245,5.245,0,0,1-3.787-1.787A5.011,5.011,0,0,1,2.777,12.5a5.693,5.693,0,0,0,2.258-.1A5.235,5.235,0,0,1,.967,7.251" transform="translate(0 0)" fill="#fff"/>
  </g>
</svg>
