<svg xmlns="http://www.w3.org/2000/svg" width="16" height="16" viewBox="0 0 16 16">
  <path id="calendar" d="M15.75,16.008H.25a.251.251,0,0,1-.25-.25V2.258a.251.251,0,0,1,.25-.25h1.5a.251.251,0,0,1,.25.25v11.5a.251.251,0,0,0,.25.25h11.5a.251.251,0,0,0,.25-.25V2.258a.251.251,0,0,1,.25-.25h1.5a.251.251,0,0,1,.25.25v13.5A.251.251,0,0,1,15.75,16.008ZM3.875,6.321h1.5a.251.251,0,0,1,.25.25v1.5a.251.251,0,0,1-.25.25h-1.5a.251.251,0,0,1-.25-.25v-1.5A.251.251,0,0,1,3.875,6.321Zm3.375,0h1.5a.251.251,0,0,1,.25.25v1.5a.251.251,0,0,1-.25.25H7.25A.251.251,0,0,1,7,8.071v-1.5A.251.251,0,0,1,7.25,6.321Zm3.375,0h1.5a.251.251,0,0,1,.25.25v1.5a.251.251,0,0,1-.25.25h-1.5a.251.251,0,0,1-.25-.25v-1.5A.251.251,0,0,1,10.625,6.321Zm-6.75,3.687h1.5a.251.251,0,0,1,.25.25v1.5a.251.251,0,0,1-.25.25h-1.5a.251.251,0,0,1-.25-.25v-1.5A.251.251,0,0,1,3.875,10.008Zm3.375,0h1.5a.251.251,0,0,1,.25.25v1.5a.251.251,0,0,1-.25.25H7.25a.251.251,0,0,1-.25-.25v-1.5A.251.251,0,0,1,7.25,10.008Zm3.125,1.75v-1.5a.251.251,0,0,1,.25-.25h1.5a.251.251,0,0,1,.25.25v1.5a.251.251,0,0,1-.25.25h-1.5A.251.251,0,0,1,10.375,11.758ZM4.313,3.008V1.03A1.037,1.037,0,0,1,5.241.011a1,1,0,0,1,1.072,1V2.986a1.037,1.037,0,0,1-.928,1.019A1,1,0,0,1,4.313,3.008Zm5.375,0V1.03A1.037,1.037,0,0,1,10.616.011a1,1,0,0,1,1.072,1V2.986a1.037,1.037,0,0,1-.928,1.019A1,1,0,0,1,9.688,3.008Z" transform="translate(0 -0.008)" fill="#fff"/>
</svg>
