<svg xmlns="http://www.w3.org/2000/svg" width="12.857" height="12.857" viewBox="0 0 12.857 12.857">
  <path id="clock" d="M6.429,0a6.19,6.19,0,0,1,4.542,1.886,6.19,6.19,0,0,1,1.886,4.542,6.2,6.2,0,0,1-1.886,4.542,6.188,6.188,0,0,1-4.542,1.886,6.2,6.2,0,0,1-4.542-1.886A6.188,6.188,0,0,1,0,6.429,6.19,6.19,0,0,1,1.886,1.886,6.19,6.19,0,0,1,6.429,0h0Zm0,11.46A4.832,4.832,0,0,0,9.992,9.979a4.864,4.864,0,0,0,1.467-3.55A4.851,4.851,0,0,0,9.992,2.865,4.851,4.851,0,0,0,6.429,1.4a4.866,4.866,0,0,0-3.55,1.467A4.827,4.827,0,0,0,1.4,6.429a4.847,4.847,0,0,0,1.481,3.55,4.84,4.84,0,0,0,3.55,1.481Zm.5-8.664V6.206l2.1,2.1-.7.7L5.954,6.624V2.8h.979Z" fill="#161615"/>
</svg>
