<svg xmlns="http://www.w3.org/2000/svg" width="15.503" height="16" viewBox="0 0 15.503 16">
  <path id="comment" d="M5.391,6.035h7.5v1.5h-7.5Zm0,3.75h7.5v1.5h-7.5Zm8.749-7.5h-10a2.75,2.75,0,0,0-2.75,2.75h0v7.5a2.75,2.75,0,0,0,2.75,2.75H5.949L8.6,18.055a.752.752,0,0,0,1.073.011l2.779-2.78h1.691a2.75,2.75,0,0,0,2.75-2.75h0v-7.5h0a2.75,2.75,0,0,0-2.75-2.75h0Zm1.25,10.249v0a1.25,1.25,0,0,1-1.25,1.25h-2a.747.747,0,0,0-.528.217h0l-2.47,2.458L6.8,14.017a.749.749,0,0,0-.53-.23H4.141a1.25,1.25,0,0,1-1.25-1.25h0v-7.5a1.25,1.25,0,0,1,1.25-1.25h10a1.25,1.25,0,0,1,1.25,1.25h0Z" transform="translate(-1.391 -2.286)" fill="#fff"/>
</svg>
