<svg xmlns="http://www.w3.org/2000/svg" width="12" height="8.69" viewBox="0 0 12 8.69">
  <path id="goal" d="M1.034,141.22A1.034,1.034,0,0,0,0,142.254H0v6.828a.828.828,0,0,0,1.655,0h0v-.207h8.69v.207a.828.828,0,0,0,1.655,0h0v-6.828a1.034,1.034,0,0,0-1.034-1.034H1.034Zm8.278,4.161-1.358-1.312,1.233-1.194h.95a.207.207,0,0,1,.207.207v1.3Zm-4.669-1.314,1.233-1.194h.246l1.233,1.194L6,145.379Zm-1.954,1.31-1.034-1v-1.3a.207.207,0,0,1,.207-.207h.95l1.233,1.194Zm1.653-1.6-.934-.9H5.282Zm-1.355,1.89,1.358-1.312L5.7,145.669l-1.36,1.315Zm-1.332.712v-1.424l.737.712Zm0,.576,1.034-1,1.357,1.312-1.233,1.194H1.655Zm6.937-4.082-.937.905-.937-.905Zm-.937,4.108L6.3,145.669l1.358-1.312,1.358,1.312Zm.3.285,1.358-1.312,1.034,1v1.505H9.188Zm1.655-1.6.736-.712v1.424ZM6.12,148.462H5.874L4.64,147.269,6,145.957l1.36,1.312Zm.6,0,.937-.905.937.905Zm-3.31,0,.937-.905.937.905ZM.414,142.255a.621.621,0,0,1,.621-.621h9.932a.621.621,0,0,1,.621.621h0v6.828a.414.414,0,1,1-.828,0h0v-6h0a.621.621,0,0,0-.621-.621H1.861a.621.621,0,0,0-.621.621h0v6a.414.414,0,1,1-.828,0h0Z" transform="translate(0 -141.22)" fill="#cdcdcd"/>
</svg>
