<svg xmlns="http://www.w3.org/2000/svg" width="15.258" height="12.857" viewBox="0 0 15.258 12.857">
  <path id="jersey-stripes" d="M15.165,3.581,12.787,1.917A3.732,3.732,0,0,0,10.7,1.2H9.663S9.452,2.486,7.629,2.486,5.594,1.2,5.594,1.2H4.553a3.8,3.8,0,0,0-2.084.717L.084,3.589a.2.2,0,0,0-.049.273l1.23,1.8.472.685a.2.2,0,0,0,.273.052c.453-.3,1.68-1.16,1.68-1.16v7.826a6.173,6.173,0,0,0,3.938.993,6.109,6.109,0,0,0,3.938-.993V5.237l1.68,1.157a.2.2,0,0,0,.284-.054l.378-.566s.965-1.386,1.31-1.89a.218.218,0,0,0-.054-.3ZM3.706,4.57,3.381,4.8,2,5.741,1.721,5.35.68,3.837l2.1-1.465L2.8,2.356h.016a2.712,2.712,0,0,1,.895-.472V4.57Zm2.246,8.836c-.261-.049-.488-.1-.717-.162-.146-.049-.277-.1-.407-.146V1.738H5.2a2.122,2.122,0,0,0,.749.845V13.406Zm2.23.1c-.162.016-.342.016-.521.016H7.6c-.18,0-.358,0-.521-.016V2.992a2.97,2.97,0,0,0,.553.049,2.842,2.842,0,0,0,.553-.049V13.5Zm2.246-.407h0c-.13.049-.261.1-.407.146a6.437,6.437,0,0,1-.717.162V2.583a2.121,2.121,0,0,0,.749-.845h.375V13.1Zm3.028-7.633-.18.277-1.4-.944-.326-.227V1.884a2.712,2.712,0,0,1,.895.472h.016l.016.016,2.1,1.465-1.12,1.627Z" transform="translate(0 -1.2)" fill="#161615"/>
</svg>
