<svg xmlns="http://www.w3.org/2000/svg" width="16" height="11.894" viewBox="0 0 16 11.894">
  <path id="list" d="M2.385,12.77a1.24,1.24,0,0,1-.332.845,1.186,1.186,0,0,1-.845.332,1.24,1.24,0,0,1-.845-.332A1.186,1.186,0,0,1,.03,12.77a1.24,1.24,0,0,1,.332-.845,1.186,1.186,0,0,1,.845-.332,1.24,1.24,0,0,1,.845.332A1.186,1.186,0,0,1,2.385,12.77Zm0-4.74a1.24,1.24,0,0,1-.332.845,1.186,1.186,0,0,1-.845.332,1.24,1.24,0,0,1-.845-.332A1.186,1.186,0,0,1,.03,8.03a1.24,1.24,0,0,1,.332-.845,1.072,1.072,0,0,1,.845-.332,1.24,1.24,0,0,1,.845.332A1.072,1.072,0,0,1,2.385,8.03ZM16,11.864v1.781a.31.31,0,0,1-.3.3H4.438a.31.31,0,0,1-.3-.3V11.864a.31.31,0,0,1,.3-.3H15.7a.31.31,0,0,1,.3.3ZM2.355,3.26a1.24,1.24,0,0,1-.332.845,1.186,1.186,0,0,1-.845.332,1.24,1.24,0,0,1-.845-.332A1.186,1.186,0,0,1,0,3.26a1.24,1.24,0,0,1,.332-.845,1.186,1.186,0,0,1,.845-.332,1.24,1.24,0,0,1,.845.332,1.136,1.136,0,0,1,.332.845ZM16,7.125V8.906a.31.31,0,0,1-.3.3H4.438a.31.31,0,0,1-.3-.3V7.125a.31.31,0,0,1,.3-.3H15.7a.31.31,0,0,1,.3.3Zm0-4.77V4.136a.31.31,0,0,1-.3.3H4.438a.31.31,0,0,1-.3-.3V2.355a.31.31,0,0,1,.3-.3H15.7a.274.274,0,0,1,.211.091A.326.326,0,0,1,16,2.355Z" transform="translate(0 -2.053)" fill="#000"/>
</svg>
