<svg xmlns="http://www.w3.org/2000/svg" width="15.598" height="10.218" viewBox="0 0 15.598 10.218">
  <path id="matchfield-outline" d="M14.527,2.692l-13.456,0A1.071,1.071,0,0,0,0,3.763v8.071a1.075,1.075,0,0,0,1.071,1.073H14.436A1.162,1.162,0,0,0,15.6,11.746V3.766a1.075,1.075,0,0,0-1.071-1.073ZM8.069,6.043a.091.091,0,0,1,.108-.089,1.882,1.882,0,0,1,0,3.687.091.091,0,0,1-.108-.089V6.043ZM.538,6.008a.091.091,0,0,1,.091-.091H2.063a.091.091,0,0,1,.091.091V9.593a.091.091,0,0,1-.091.091H.629a.091.091,0,0,1-.091-.091V6.008Zm6.994-.693a.09.09,0,0,1-.077.089,2.422,2.422,0,0,0,0,4.794.09.09,0,0,1,.077.089v2a.091.091,0,0,1-.091.091l-6.369,0a.536.536,0,0,1-.533-.538v-1.52a.091.091,0,0,1,.091-.091H2.6a.091.091,0,0,0,.091-.091V5.47A.091.091,0,0,0,2.6,5.379H.629a.091.091,0,0,1-.091-.091V3.854a.631.631,0,0,1,.629-.629H7.443a.091.091,0,0,1,.091.091v2Zm0,.728V9.555a.091.091,0,0,1-.108.089,1.882,1.882,0,0,1,0-3.687.089.089,0,0,1,.108.086Zm7.531,5.79a.537.537,0,0,1-.533.538l-6.367,0a.091.091,0,0,1-.091-.091v-2a.09.09,0,0,1,.077-.089,2.422,2.422,0,0,0,0-4.794.09.09,0,0,1-.077-.089v-2a.091.091,0,0,1,.091-.091h6.367a.536.536,0,0,1,.533.538V5.288a.091.091,0,0,1-.091.091H13a.091.091,0,0,0-.091.091v4.661a.091.091,0,0,0,.091.091h1.97a.091.091,0,0,1,.091.091v1.52Zm0-2.242a.091.091,0,0,1-.091.091H13.536a.091.091,0,0,1-.091-.091V6.008a.091.091,0,0,1,.091-.091H14.97a.091.091,0,0,1,.091.091Z" transform="translate(0 -2.69)" fill="#fff"/>
</svg>
