<svg xmlns="http://www.w3.org/2000/svg" width="18" height="12.339" viewBox="0 0 18 12.339">
  <path id="podium-outline" d="M16.861,173.369H1.135a1.129,1.129,0,0,1-.8-.332,1.118,1.118,0,0,1-.332-.8V166.19a1.134,1.134,0,0,1,1.134-1.134H5.024v-2.893a1.134,1.134,0,0,1,1.134-1.134h5.687a1.134,1.134,0,0,1,1.134,1.134v3.9h3.889A1.134,1.134,0,0,1,18,167.2v5.036a1.144,1.144,0,0,1-1.14,1.134ZM1.135,166.1a.089.089,0,0,0-.091.091v6.046a.089.089,0,0,0,.091.091H16.867a.089.089,0,0,0,.091-.091v-5.036a.089.089,0,0,0-.091-.091h-4.41a.523.523,0,0,1-.521-.521v-4.43a.089.089,0,0,0-.091-.091H6.157a.089.089,0,0,0-.091.091v3.42a.523.523,0,0,1-.521.521H1.135Zm2.156,3.407a.436.436,0,0,1-.873,0v-1.537a.436.436,0,0,1,.873,0Zm1.212,0a.436.436,0,0,1-.873,0v-1.537a.436.436,0,0,1,.873,0Zm4.932-4.033a.436.436,0,0,1-.873,0v-1.531a.436.436,0,0,1,.873,0Zm3.831,4.971a.436.436,0,0,1-.873,0v-1.537a.436.436,0,0,1,.873,0Zm1.205,0a.436.436,0,0,1-.873,0v-1.537a.436.436,0,0,1,.873,0Zm1.212,0a.436.436,0,0,1-.873,0v-1.537a.436.436,0,0,1,.873,0Z" transform="translate(-0.001 -161.03)" fill="#fff"/>
</svg>
