<svg xmlns="http://www.w3.org/2000/svg" width="15.598" height="16" viewBox="0 0 15.598 16">
  <path id="reply" d="M13.429,0H4.865a2.366,2.366,0,0,0-2.37,2.294A2.318,2.318,0,0,0,.2,4.664v6.423a2.371,2.371,0,0,0,.688,1.682,1.8,1.8,0,0,0,.688.459,2.114,2.114,0,0,0,.994.229H4.1l2.294,2.37a.7.7,0,0,0,.918,0h0l2.294-2.294h0l.076-.076h1.453a2.113,2.113,0,0,0,.994-.229c.076,0,.153-.076.229-.153a2.432,2.432,0,0,0,1.147-1.911A2.318,2.318,0,0,0,15.8,8.793V2.37A2.382,2.382,0,0,0,13.429,0ZM6.853,14.452,4.789,12.387a.66.66,0,0,0-.459-.229H2.495a1.045,1.045,0,0,1-1.071-1.071V4.664A1.045,1.045,0,0,1,2.495,3.594h8.564a1.045,1.045,0,0,1,1.071,1.071v6.423a1.045,1.045,0,0,1-1.071,1.071H9.377a1.082,1.082,0,0,0-.459.153l-.841.841-1.223,1.3ZM14.5,8.794a.981.981,0,0,1-.306.764,1.138,1.138,0,0,1-.688.306v-5.2a2.382,2.382,0,0,0-2.37-2.37H3.795A1.03,1.03,0,0,1,4.865,1.3h8.564a.981.981,0,0,1,.764.306.981.981,0,0,1,.306.764V8.793ZM3.642,5.505h6.423v1.3H3.642v-1.3Zm0,3.212h6.423v1.3H3.642v-1.3Z" transform="translate(-0.201)" fill="#fff"/>
</svg>
