<svg xmlns="http://www.w3.org/2000/svg" width="20" height="12.857" viewBox="0 0 20 12.857">
  <path id="spectators" d="M18.571,189.285a10.971,10.971,0,0,0-4.252-3.94A4.878,4.878,0,0,1,15,187.856a4.815,4.815,0,0,1-1.468,3.532A4.815,4.815,0,0,1,10,192.856a4.815,4.815,0,0,1-3.532-1.468A4.815,4.815,0,0,1,5,187.856a4.878,4.878,0,0,1,.681-2.511,10.971,10.971,0,0,0-4.252,3.94,11.52,11.52,0,0,0,3.722,3.644,9.349,9.349,0,0,0,9.7,0A11.52,11.52,0,0,0,18.571,189.285ZM10.536,185a.533.533,0,0,0-.536-.536,3.411,3.411,0,0,0-3.393,3.393.536.536,0,1,0,1.071,0A2.324,2.324,0,0,1,10,185.535a.533.533,0,0,0,.536-.536ZM20,189.285a1.545,1.545,0,0,1-.223.77,11.84,11.84,0,0,1-4.2,4.113,10.809,10.809,0,0,1-11.15-.006,11.918,11.918,0,0,1-4.2-4.107,1.44,1.44,0,0,1,0-1.54,11.918,11.918,0,0,1,4.2-4.107,10.792,10.792,0,0,1,11.15,0,11.918,11.918,0,0,1,4.2,4.107,1.545,1.545,0,0,1,.223.77Z" transform="translate(0 -182.856)" fill="#161615"/>
</svg>
